<?xml version="1.0" encoding="UTF-8"?>
<svg width="70px" height="43px" viewBox="0 0 70 43" version="1.1" xmlns="http://www.w3.org/2000/svg" xmlns:xlink="http://www.w3.org/1999/xlink">
    <!-- Generator: Sketch 53.2 (72643) - https://sketchapp.com -->
    <title>logos - ACS</title>
    <desc>Created with Sketch.</desc>
    <g id="Page-1" stroke="none" stroke-width="1" fill="none" fill-rule="evenodd">
        <g id="happy-hour_home_04a" transform="translate(-685.000000, -3808.000000)" fill="#FEFEFE">
            <g id="logo-farm" transform="translate(0.000000, 3600.000000)">
                <g id="logos" transform="translate(121.000000, 120.000000)">
                    <g id="row-1" transform="translate(0.000000, 47.000000)">
                        <g id="logos-/-ACS" transform="translate(564.000000, 41.000000)">
                            <g id="Group-51">
                                <path d="M26.1523217,13.159719 L26.1499312,12.4240462 L24.7701478,12.4104876 L24.7626178,16.9151976 L26.2900132,16.922219 C26.3541975,15.9037534 25.9635935,13.7634381 27.0342882,13.6110253 C28.1784901,13.4480805 27.6607128,15.4220614 27.7961333,16.9137449 L29.3146839,16.9227033 C29.390462,15.8807523 28.999619,13.7703384 30.0515484,13.6117517 C31.1759094,13.4423908 30.7214797,15.3907072 30.8194892,16.9095079 L32.3429403,16.9239139 C32.3925427,16.2678975 32.3514265,15.4528102 32.3514265,14.7858986 C32.3514265,14.1249189 32.3838174,13.4110366 32.0906254,12.905375 C31.5294609,11.9373908 29.6523388,12.2182466 29.2389057,13.1201329 C29.0262728,13.0121486 29.0892619,12.7706368 28.6301707,12.5093925 C27.9572514,12.1264842 26.8259581,12.2589223 26.3212089,12.998348 C26.2398132,13.1173485 26.2896546,13.1045163 26.1523217,13.159719" id="Fill-1"></path>
                                <path d="M17.7717033,16.9103432 L19.3620878,16.9237807 L19.8534503,15.6348702 L22.0814945,15.6300279 C22.2120146,15.8746872 22.4233328,16.5719845 22.5393904,16.9163961 L24.2438006,16.924386 C24.2355535,16.6355403 23.3021917,14.3688398 23.1243402,13.8842424 C22.9335801,13.3640538 22.7442543,12.8913201 22.5588728,12.3940115 C22.4534528,12.1113398 22.1059969,11.0917846 21.9673493,10.8863483 L20.0417004,10.8753319 L17.7717033,16.9103432 Z M20.9855803,12.1620633 C21.0997256,12.2592734 21.2941909,13.0746028 21.3613633,13.2986822 C21.4565043,13.6160977 21.6635196,14.1742987 21.7054725,14.4819085 L20.2477595,14.4898984 C20.2629391,14.3073421 20.9039455,12.299828 20.9855803,12.1620633 L20.9855803,12.1620633 Z" id="Fill-3"></path>
                                <path d="M18.1017326,30.3305802 L17.9795792,31.6100481 C18.3863189,31.8824299 21.5544182,32.3882126 22.2316404,30.6952086 C22.42001,30.2242908 22.4252691,29.5706957 22.2095285,29.1081309 C22.014107,28.6895104 21.6500373,28.4523567 21.1583162,28.2624158 C20.7687879,28.1120611 20.0339553,27.979502 19.7631142,27.7657126 C19.3054574,27.4038685 19.4903608,26.5945921 21.2058867,26.8767796 L21.8280083,27.0489248 C21.9300817,27.0538882 21.8851407,27.0593359 21.9472932,27.0225341 L22.0466175,25.8762306 C21.7696807,25.6918584 20.7759594,25.6339924 20.3814111,25.6387137 C17.7516472,25.670431 17.5206076,27.6372694 18.2549622,28.5644569 C18.8156486,29.2722863 20.5110945,29.3288207 20.7038865,29.910507 C21.0255252,30.8804282 19.4353798,30.7429057 18.8064453,30.5735448 C18.622498,30.5240318 18.1888655,30.3325172 18.1017326,30.3305802" id="Fill-5"></path>
                                <path d="M23.0597017,24.1927782 L22.9918121,22.9743238 C22.7482225,23.0103992 22.4386557,23.1724966 21.8710369,23.2450107 C20.6325307,23.4032342 19.5054208,22.766103 19.5134289,21.3246588 C19.5227517,19.6627669 20.9717394,19.0529949 22.4329186,19.5889212 C22.5928415,19.6476346 22.8038011,19.7799516 22.9339626,19.7840676 L23.0558769,18.5105315 C21.8609969,18.1635777 20.6003788,18.0239972 19.4547427,18.5912776 C18.5028547,19.0625586 17.8820478,19.9385383 17.873203,21.3249009 C17.8490592,25.1194814 22.4818038,24.5756864 23.0597017,24.1927782" id="Fill-7"></path>
                                <path d="M44.1083906,32.456199 C44.0910596,32.7109063 43.9882691,33.4108668 44.0414572,33.6114609 C46.2025681,34.1303178 46.5885106,32.8970943 47.1850542,31.379141 C47.4533852,30.6963708 47.7080905,30.0413229 47.9743897,29.3480206 C48.1137545,28.9852081 48.7168719,27.525605 48.7521314,27.2765876 L47.2637008,27.2756191 C47.1584003,27.4409851 46.8727383,28.4623561 46.7928964,28.7254164 C46.7091102,29.0014299 46.4416158,29.9908415 46.319821,30.1635921 C46.1541609,29.9778882 45.4867397,27.4213736 45.327773,27.2972886 C45.1554196,27.2063736 44.0163572,27.2642396 43.7268704,27.273319 C43.7260338,27.5275419 45.4723968,31.6920774 45.4802854,31.8828657 C45.4897278,32.1162666 45.2304805,32.3815059 45.0119909,32.4655206 C44.6246141,32.6149068 44.423814,32.4340453 44.1083906,32.456199" id="Fill-9"></path>
                                <path d="M24.8117063,27.2093032 C21.5542031,27.7130279 22.1610257,32.3705138 25.7931166,31.8534727 C27.1293934,31.6632897 28.1305252,30.6148015 27.8374527,29.0294186 C27.5985245,27.7365132 26.3351573,26.9737233 24.8117063,27.2093032 M25.0439411,28.2943511 C26.5335669,27.9128956 26.6895456,30.4727998 25.5807228,30.7628561 C24.0570326,31.161623 23.8604159,28.5974817 25.0439411,28.2943511" id="Fill-11"></path>
                                <path d="M54.8490792,13.1870904 L54.8404735,12.4262373 L53.4618853,12.4100155 L53.4531601,16.9153308 L54.9787626,16.921989 C55.0553774,15.8088556 54.6133781,13.7117582 55.8396929,13.6055898 C57.0636172,13.4995425 56.5099827,15.493498 56.6652442,16.9194468 L58.1768624,16.9241681 C58.2466643,16.3319496 58.1886952,15.3426591 58.1886952,14.7094017 C58.1886952,13.9255476 58.2071019,13.3867159 57.8045456,12.8666484 C57.2158906,12.1062796 55.7433567,12.1197171 55.1097607,12.8667694 C55.0718716,12.911319 55.0385245,12.9541737 54.9964521,13.0172452 C54.9121878,13.1438725 54.9634635,13.1153026 54.8490792,13.1870904" id="Fill-13"></path>
                                <path d="M30.1255576,20.6028108 L30.1198205,19.8491002 L28.7389614,19.8415946 L28.7253356,24.3355304 L30.2526115,24.3435203 C30.3101024,23.239103 29.9137613,21.1321999 31.1026651,21.0429797 C32.3122466,20.9520648 31.8370197,22.7725434 31.9419617,24.3374673 L33.4633808,24.3431571 C33.4933813,23.6295169 33.4675642,22.8726588 33.4674446,22.166161 C33.4673251,21.4283091 33.5078437,20.8577601 33.1071997,20.3290974 C32.487349,19.5112258 30.9059289,19.5124364 30.2795043,20.4495507 C30.202531,20.5647984 30.2338462,20.5612877 30.1255576,20.6028108" id="Fill-15"></path>
                                <path d="M48.7263979,12.6444454 L48.7425337,13.6591582 C48.9240904,13.6140034 49.1069619,13.5000873 49.340392,13.441616 C49.9732708,13.2835135 51.1510589,13.1710501 51.1698241,14.1104645 C50.36758,14.0856475 49.7363745,13.9885586 49.01959,14.3096059 C47.7091304,14.8963767 47.8810057,16.8120073 49.4908725,17.0038851 C50.7763516,17.1571453 50.9977098,16.4345467 51.2403432,16.2690597 L51.2916189,16.9047382 L52.6855061,16.9235023 C52.6760638,16.5772748 52.6141504,16.2594961 52.6146285,15.8949887 C52.6168995,14.1516244 52.9398529,12.3963964 50.6245563,12.3076605 C50.094468,12.2874437 49.0694314,12.3753322 48.7263979,12.6444454 M50.1783737,14.9302731 C50.3939948,14.8828181 50.5777029,14.8933502 50.8137626,14.899161 C51.0793446,14.9055771 51.2207413,14.8484375 51.1626527,15.1375253 C51.0921336,15.4885952 50.8673092,15.7832517 50.5994563,15.9083052 C49.6993221,16.3283784 49.0652481,15.1755377 50.1783737,14.9302731" id="Fill-17"></path>
                                <path d="M24.0530644,20.0628896 L24.0595187,21.0779657 C24.1544207,21.0753024 24.5078527,20.911268 24.6898876,20.8662342 C25.2913316,20.7174533 26.5656949,20.6386441 26.4860921,21.5425884 C25.6499032,21.5345985 25.0930415,21.4188666 24.341356,21.7436667 C23.0416536,22.3052573 23.171576,24.2136244 24.8127581,24.4377038 C26.0238933,24.6029488 26.2776425,23.923326 26.5356945,23.7198266 C26.610875,23.8437905 26.598325,24.1750068 26.6038231,24.3176137 C26.7839455,24.3770535 27.7605749,24.3542945 28.001535,24.3378305 C27.9934074,24.001772 27.9355579,23.6882303 27.9357969,23.3133119 C27.9371117,21.5832641 28.2540889,19.8304572 25.96951,19.7436582 C25.3967516,19.7218677 24.4779718,19.8166565 24.0530644,20.0628896 M26.4735421,22.5867185 C26.2543353,23.6212849 25.118261,23.5750405 24.9432781,23.0939538 C24.787419,22.6651644 25.1655925,22.4270422 25.468944,22.3565861 C25.6750032,22.308647 25.9077161,22.3269268 26.1214248,22.3317691 C26.4177244,22.3383063 26.5402364,22.2723294 26.4735421,22.5867185" id="Fill-19"></path>
                                <path d="M42.5859794,24.1709029 L42.5883698,23.1047401 C42.1610721,23.1902075 41.9209486,23.476632 40.9949973,23.4115025 C40.4655066,23.3742165 39.9184459,23.1066771 39.9424702,22.5507762 L42.9865038,22.5470234 C43.355952,19.2584676 39.5902334,19.02773 38.6393016,20.8856157 C38.0390528,22.0585521 38.4615697,23.3708269 39.2406262,23.943676 C40.0818351,24.5622852 41.5924971,24.6183353 42.5859794,24.1709029 M41.6012223,21.6657171 L39.9303983,21.6715279 C39.8701583,21.1435915 40.2753442,20.7162548 40.7695753,20.7197655 C41.2841255,20.7235183 41.6624185,21.1050949 41.6012223,21.6657171" id="Fill-21"></path>
                                <path d="M39.2180601,31.6074938 L39.2271439,30.5385467 C38.8427551,30.6142083 38.4642231,30.9285974 37.602217,30.8405878 C37.0923283,30.7885327 36.5462238,30.5035608 36.5676185,29.9925726 L39.6169112,29.9771982 C39.8646841,26.4795743 36.163867,26.5910693 35.2693504,28.3317703 C34.6869107,29.4652416 35.0849251,30.7828429 35.8517902,31.3529077 C36.765311,32.0321672 38.0872449,32.0158243 39.2180601,31.6074938 L39.2180601,31.6074938 Z M36.5604471,29.0996447 C36.514789,27.8623052 38.2842202,27.8005653 38.2474068,29.1001289 L36.5604471,29.0996447 Z" id="Fill-23"></path>
                                <path d="M37.1384167,16.7372173 L37.1417633,15.6686334 C36.6692855,15.7916289 36.3880459,16.0549313 35.5587894,15.9802382 C34.9886606,15.9287883 34.5097285,15.6956295 34.4961028,15.1237489 L37.5408535,15.1173328 C37.6216516,14.5538052 37.4604139,13.7852044 37.2469443,13.3789319 C36.3930659,11.7538418 33.9044597,12.0948637 33.2077551,13.4360715 C32.5962711,14.613366 33.0146046,15.9090557 33.7677244,16.4856577 C34.6251886,17.1421582 36.0408291,17.1754493 37.1384167,16.7372173 L37.1384167,16.7372173 Z M34.4784133,14.2328789 C34.4199661,13.7214065 34.827901,13.2893485 35.3328893,13.2906802 C35.8634557,13.2921329 36.2134216,13.6901734 36.1737396,14.2397793 L34.4784133,14.2328789 Z" id="Fill-25"></path>
                                <path d="M40.692853,26.2569234 L40.6826934,27.2417348 C40.3966728,27.3287759 39.8929993,27.2056593 39.8004879,27.3071064 C39.7150283,27.448866 39.771085,28.1157776 39.7740731,28.3391306 L40.6487487,28.3678215 C40.7887111,29.2281847 40.46014,30.5772613 40.8756049,31.2771008 C41.2546151,31.9150794 42.3900917,32.0287534 43.323573,31.7915997 L43.280903,30.8220417 C43.0074324,30.7808818 42.832569,30.9288153 42.5184603,30.799888 C42.0499268,30.607647 42.201244,29.5423316 42.1965826,28.8197331 C42.1953874,28.6446824 42.1796102,28.579674 42.2204874,28.4157607 C42.2225193,28.408134 42.2262245,28.3950597 42.2306469,28.3852539 L43.2764806,28.3581368 C43.3046883,27.3029904 43.3695897,27.2719994 43.0385086,27.2677624 C42.7646795,27.2641306 42.4698141,27.2889476 42.1995707,27.2577145 L42.196224,25.8073119 C41.9430725,25.8166334 40.9928578,26.1661295 40.692853,26.2569234" id="Fill-27"></path>
                                <path d="M47.7427764,16.8125158 L47.7241306,15.6991402 C47.4781506,15.7401791 47.3111757,15.8428367 47.0287409,15.8737066 C45.0361586,16.091491 44.9732891,13.308839 46.8863879,13.4562883 C47.2198595,13.4819527 47.3467938,13.6136644 47.6116587,13.6588193 L47.7171983,12.5691712 C47.1463523,12.1195597 45.7101537,12.3128902 45.1174349,12.6154155 C43.171706,13.6080957 43.5442619,16.9364797 46.3197253,17.0191627 C46.7222817,17.0311475 47.4492258,16.9832083 47.7427764,16.8125158" id="Fill-29"></path>
                                <path d="M37.8953613,24.2640574 L37.8806598,23.1390602 C37.658704,23.13446 37.0918024,23.4868615 36.4057354,23.2198063 C35.3810574,22.8209184 35.4477517,21.4064702 36.2925463,20.9965659 C36.9193294,20.6925878 37.4400949,21.0190828 37.7580283,21.1012815 L37.8754008,19.981732 C36.0709491,19.2607072 34.0764545,20.1295445 34.066056,22.0896036 C34.0555379,24.0765377 36.0043743,24.8708029 37.8953613,24.2640574" id="Fill-31"></path>
                                <path d="M32.0677605,31.7004184 L32.0523419,30.5642838 C31.8012223,30.5993908 31.6478732,30.7089488 31.3325693,30.7371554 C29.5787957,30.8946526 29.4350085,28.9118345 30.4829937,28.4213052 C31.0394968,28.1607872 31.4910579,28.3708238 31.9263638,28.5434533 L32.0493538,27.4174876 C30.7479781,26.8039628 28.2551886,27.2489741 28.2378576,29.5074426 C28.2298495,30.5512095 28.7457145,31.1966937 29.3873185,31.5492162 C30.2653408,32.0313925 31.1164701,31.9178395 32.0677605,31.7004184" id="Fill-33"></path>
                                <path d="M39.657872,13.1607238 C39.6009786,13.0986208 39.5781496,13.2250059 39.5872334,12.7974271 C39.5899824,12.6727368 39.590102,12.5528888 39.5824524,12.4284406 L38.2009957,12.4090712 L38.1904776,16.9204395 L39.7293473,16.9223764 C39.775603,15.7499243 39.4528886,14.2303972 40.3016275,13.7395048 C40.6515933,13.5369738 40.9677339,13.6190515 41.3699317,13.6357576 L41.4486979,12.356895 C40.4230637,12.183297 40.0032959,12.4929648 39.657872,13.1607238" id="Fill-35"></path>
                                <path d="M45.0369116,20.6041061 L45.0324893,19.8485797 L43.650674,19.8415583 L43.6359725,24.3396101 L45.164085,24.3419102 C45.2007789,23.6350493 45.0830479,22.5508488 45.2226517,21.935145 C45.4778352,20.8093004 46.4278108,21.0862824 46.8106457,21.0502069 C46.8450685,20.9120791 46.8956271,19.9053561 46.8614433,19.7835712 C45.3553232,19.5222058 45.2901827,20.4903111 45.0369116,20.6041061" id="Fill-37"></path>
                                <polygon id="Fill-39" points="32.7887523 31.779978 34.3212872 31.7836098 34.3246339 27.2819262 32.7940114 27.2745417"></polygon>
                                <polygon id="Fill-41" points="41.9518216 16.9099921 43.4751532 16.9234296 43.484476 12.4211408 41.9574393 12.4115771"></polygon>
                                <polygon id="Fill-43" points="32.7905691 26.5294141 34.3147373 26.5324406 34.3247773 25.4080487 32.7921229 25.400422"></polygon>
                                <polygon id="Fill-45" points="41.9541524 11.6643916 43.4691172 11.6738342 43.4853725 10.5477475 41.9552281 10.5370943"></polygon>
                                <path d="M49.7758533,27.0661394 C48.7879886,27.4279834 49.3283559,28.7681016 50.2314782,28.4573443 C50.5557464,28.3458494 50.8079418,27.9403032 50.6620031,27.5164772 C50.5608859,27.2226681 50.1960991,26.9122739 49.7758533,27.0661394 M50.4585735,27.9785577 C50.1951429,28.665565 49.2455259,28.2805988 49.4888765,27.5549738 C49.7225456,26.8579186 50.7362274,27.2541433 50.4585735,27.9785577" id="Fill-47"></path>
                                <path d="M55.2846839,41.910594 L14.2552517,41.910594 L14.2435384,0.968468468 L68.6680091,0.968468468 L55.2846839,41.910594 Z M12.2081667,24.8645805 C12.0814714,25.4535304 11.8033394,25.6570298 11.4097473,25.9669398 C9.97904674,27.0932686 8.63834764,28.1952646 7.2011928,29.3145721 C6.82182408,29.6101971 6.51823349,29.8594566 6.16527954,30.1377703 C5.96603327,30.2949043 5.80407845,30.4303688 5.4666626,30.4020411 C4.88888428,30.3531334 4.61768465,29.6910642 4.86987999,29.2452055 C5.025261,28.9702815 10.5752317,24.6901351 10.6259098,24.5752506 C10.6434799,24.3808305 10.5611279,24.2998423 10.4857084,24.2011796 C10.0309201,24.1538457 9.39672651,24.7300845 8.85193677,24.3643666 C8.92532442,24.2192173 9.38059079,23.6358361 9.41393795,23.5208305 C9.46987511,23.3275 8.99942921,22.8442342 8.94480681,22.5952168 C9.99099912,22.5375929 11.3252439,22.3923226 11.926688,23.3469904 C12.1656162,23.7262669 12.322551,24.3332545 12.2081667,24.8645805 L12.2081667,24.8645805 Z M10.303554,29.2021087 C10.195863,29.5264245 9.99673627,29.6541413 9.76557713,29.8445664 C8.82767343,30.6176464 7.41215241,31.8130997 6.48906967,32.4923592 C5.92670992,32.9062584 5.0568153,32.533277 5.26514538,31.6689189 C5.34403112,31.3414555 5.57698312,31.2056278 5.79595082,31.0248874 C6.16599668,30.7193356 8.84763392,28.5172804 9.06947019,28.3778209 C9.6982852,27.9825648 10.5636379,28.419223 10.303554,29.2021087 L10.303554,29.2021087 Z M9.75147331,32.2613795 C9.60649088,32.7215231 8.19264318,33.7184403 7.73821348,34.0627309 C7.4356986,34.2918947 6.90381745,34.7694707 6.59174066,34.8226154 C5.98252756,34.9267258 5.47825642,34.4943046 5.66913601,33.8411937 C5.7672651,33.5052562 7.3369719,32.3651267 7.70283442,32.07846 C7.96734072,31.8713288 8.52946141,31.3874578 8.84070153,31.3142173 C9.46114987,31.1680997 9.95215387,31.6248536 9.75147331,32.2613795 L9.75147331,32.2613795 Z M8.52683189,36.9278238 C8.11041077,37.4284009 7.33123475,37.3084319 6.94684603,36.9188654 C6.68186165,36.6503575 6.71712118,36.4497635 6.71700166,36.0088682 C6.71700166,35.8922889 6.7026588,35.5295974 6.72285833,35.4403773 C6.76003025,35.2762218 8.30117085,34.2278547 8.32113133,34.2225282 L8.33380086,35.3389302 C8.76683579,35.6577984 8.95448824,36.4136881 8.52683189,36.9278238 L8.52683189,36.9278238 Z M3.09136501,25.5299184 C2.39011855,24.5597551 2.7551444,22.6120439 4.56174749,22.6119229 L6.09081618,22.6148283 C6.02316567,22.9165062 5.57877598,23.3169679 5.63220314,23.5243412 C5.67630744,23.695397 6.12308762,24.1569932 6.18655479,24.3871256 C5.29574349,24.7590175 4.34672407,23.7010867 4.36262074,24.5936515 C4.55636891,24.7226999 6.989277,26.684817 7.08680847,26.7930434 C7.0438994,26.8856532 6.04097473,27.6847607 5.88332276,27.7601802 C5.71312079,27.6992877 4.7146185,26.8668891 4.46182554,26.6648423 C4.18357401,26.4426999 3.26933603,25.7759093 3.09136501,25.5299184 L3.09136501,25.5299184 Z M6.71700166,9.62355011 C6.71700166,8.65605011 6.68628403,7.63770552 6.71616499,6.67674268 C6.72345595,6.44128378 7.36219143,4.78907658 7.5068153,4.57879786 C7.60016343,4.64114302 8.29698751,6.37385417 8.32376085,6.53437782 C8.36810421,6.80240146 8.33296419,21.4560557 8.33272514,23.1220636 C8.3324861,24.0088176 8.37348278,24.9982292 8.32639038,25.872272 C8.09869743,26.0225056 7.67976632,26.422241 7.5068153,26.4762331 C6.46110108,25.713201 6.71795785,25.955076 6.71712118,24.3457235 L6.71700166,9.62355011 Z M0,0 L0.0121914333,42.8790625 L55.9754122,42.8790625 L69.9918553,0 L0,0 Z" id="Fill-49"></path>
                            </g>
                        </g>
                    </g>
                </g>
            </g>
        </g>
    </g>
</svg>