<?xml version="1.0" encoding="UTF-8"?>
<svg width="97px" height="31px" viewBox="0 0 97 31" version="1.1" xmlns="http://www.w3.org/2000/svg" xmlns:xlink="http://www.w3.org/1999/xlink">
    <!-- Generator: Sketch 53.2 (72643) - https://sketchapp.com -->
    <title>logos - coke</title>
    <desc>Created with Sketch.</desc>
    <defs>
        <polygon id="path-1" points="0 0.000317948718 96.4810118 0.000317948718 96.4810118 30.7038308 0 30.7038308"></polygon>
    </defs>
    <g id="Page-1" stroke="none" stroke-width="1" fill="none" fill-rule="evenodd">
        <g id="happy-hour_home_04a" transform="translate(-272.000000, -3814.000000)">
            <g id="logo-farm" transform="translate(0.000000, 3600.000000)">
                <g id="logos" transform="translate(121.000000, 120.000000)">
                    <g id="row-1" transform="translate(0.000000, 47.000000)">
                        <g id="logos-/-coke" transform="translate(151.000000, 47.000000)">
                            <g id="Group-3">
                                <mask id="mask-2" fill="white">
                                    <use xlink:href="#path-1"></use>
                                </mask>
                                <g id="Clip-2"></g>
                                <path d="M90.8244606,29.3067641 L90.6205315,29.3067641 L90.6205315,28.953841 L90.8359173,28.953841 C90.9474291,28.953841 91.0146417,28.9578154 91.0367913,28.9594051 C91.0810906,28.966559 91.1162244,28.984841 91.1399016,29.0134564 C91.1643425,29.0428667 91.1773268,29.0818154 91.1773268,29.1263282 C91.1773268,29.1692513 91.1681614,29.2042256 91.1483031,29.2312513 C91.1299724,29.2598667 91.1055315,29.2789436 91.0719252,29.2900718 C91.0390827,29.3019949 90.9565945,29.3067641 90.8244606,29.3067641 L90.8244606,29.3067641 Z M91.2514134,29.6159692 C91.2116969,29.573841 91.162815,29.5364821 91.1024764,29.4983282 C91.2231535,29.4816359 91.3140433,29.4371231 91.3759094,29.3671744 C91.4347205,29.3019949 91.4645079,29.2137641 91.4645079,29.1096359 C91.4645079,29.0253795 91.4446496,28.953841 91.4049331,28.8894564 C91.3644528,28.8242769 91.311752,28.7789692 91.2460669,28.7551231 C91.1788543,28.7280974 91.0719252,28.7161744 90.9268071,28.7161744 L90.3425157,28.7161744 L90.3425157,30.1167385 L90.6205315,30.1167385 L90.6205315,29.5325077 L90.677815,29.5325077 C90.7404449,29.5325077 90.7870354,29.5380718 90.8160591,29.5499949 C90.8450827,29.5587385 90.8733425,29.5786103 90.899311,29.6072256 C90.9268071,29.6342513 90.9741614,29.7042 91.0459567,29.8130974 L91.2437756,30.1167385 L91.5752559,30.1167385 L91.408752,29.8448923 C91.3423031,29.7336103 91.2896024,29.6588923 91.2514134,29.6159692 L91.2514134,29.6159692 Z M89.4030669,29.6716103 L89.1517835,28.7161744 L88.7370512,28.7161744 L88.7370512,30.1167385 L88.9929173,30.1167385 L88.9944449,29.0142513 L89.2655866,30.1167385 L89.5359646,30.1167385 L89.8063425,29.0142513 L89.8078701,30.1167385 L90.0645,30.1167385 L90.0645,28.7161744 L89.6444213,28.7161744 L89.4030669,29.6716103 Z M36.2722717,17.3065846 C36.0255709,17.7000462 35.7674134,18.0799949 35.5405709,18.3852256 C35.3160197,18.6904564 35.1220197,18.9177897 34.9570433,19.0942513 C34.7928307,19.2778667 34.6553504,19.4074308 34.535437,19.5059949 C34.3284528,19.6753026 34.161185,19.7706872 33.9908622,19.8223538 C33.7334685,19.8970718 33.4310118,19.8406359 33.215626,19.5878667 C32.9948937,19.2977385 32.9735079,19.1212769 32.9956575,18.7906103 C33.0086417,18.6443538 33.042248,18.457559 33.1086969,18.2151231 C33.1743819,17.9718923 33.2690906,17.6793795 33.4279567,17.3010205 C33.5845315,16.9314051 33.8022087,16.4727641 34.1222323,15.8980718 C34.4430197,15.3305333 34.864626,14.6437641 35.3687205,13.9244051 C35.8651772,13.2090205 36.4487047,12.4515077 36.9764764,11.8251487 C37.5057756,11.1972 37.982374,10.6956359 38.3604449,10.3387385 C38.7362244,9.97548205 39.0142402,9.76086667 39.2265709,9.6162 C39.4381378,9.46596923 39.5817283,9.39284103 39.7001142,9.34832821 C39.9170276,9.26089231 40.1125551,9.25612308 40.3035,9.34832821 C40.6303976,9.57486667 40.4868071,9.98184103 40.4577835,10.1940718 C40.4333425,10.2823026 40.4066102,10.3554308 40.258437,10.6288667 C40.1079724,10.8975333 39.8284291,11.3649179 39.5488858,11.8323026 L36.2722717,17.3065846 Z M20.8370512,10.9698667 C20.8210118,11.1471231 20.792752,11.3522 20.7530354,11.5413795 C20.7110276,11.7345333 20.6621457,11.9078154 20.5300118,12.2281487 C20.3955866,12.5556359 20.179437,13.0262 19.9480118,13.497559 C19.6524291,13.3910462 19.3629567,13.2638667 19.1399331,13.1502 C18.918437,13.0301744 18.7618622,12.926841 18.634311,12.8258923 C18.5082874,12.7265333 18.4089961,12.629559 18.3280354,12.5317897 C18.2447835,12.443559 18.1821535,12.3489692 18.1263976,12.2678923 C17.7315236,11.5342256 17.7643661,10.7767128 18.5082874,10.0215846 C18.6159803,9.91348205 18.7397126,9.81253333 18.8749016,9.71873846 C19.008563,9.62414872 19.1544449,9.53909744 19.2972717,9.48027692 C19.732626,9.30937949 20.1427756,9.14007179 20.5246654,9.47073846 C20.9355787,9.99217436 20.858437,10.4532 20.8370512,10.9698667 L20.8370512,10.9698667 Z M17.1036969,17.9385077 C16.5423189,18.7246359 16.3009646,18.9702513 16.1062008,19.1649949 C15.9060906,19.3541744 15.7502795,19.4916872 15.6112717,19.5926359 C15.4715,19.6951744 15.3447126,19.7659179 15.2270906,19.8223538 C14.6764055,20.0687641 14.061563,20.1069179 13.6789094,19.4916872 C13.5490669,19.2277897 13.5131693,18.9964821 13.5498307,18.6594564 C13.569689,18.4623282 13.6178071,18.2151231 13.7224449,17.8860462 C13.8278465,17.5545846 13.9867126,17.1372769 14.2509803,16.6031231 C14.5114291,16.070559 14.875752,15.4259179 15.3470039,14.7089436 C15.8152008,13.9951487 16.3910906,13.2129949 16.9982953,12.4666103 C17.262563,12.8505333 17.5489803,13.2129949 17.7781142,13.466559 C18.007248,13.7193282 18.180626,13.8600205 18.4418386,14.0221744 C18.7007598,14.1811487 19.0528622,14.3544308 19.4141299,14.5022769 C18.5586969,15.8440205 17.6673661,17.1595333 17.1036969,17.9385077 L17.1036969,17.9385077 Z M41.0267992,18.0648923 C40.5211772,18.6968154 40.2928071,18.9281231 40.1209567,19.0942513 C39.946815,19.2643538 39.8307205,19.3581487 39.7314291,19.4233282 C39.5221535,19.5759436 39.3105866,19.6252256 39.1058937,19.5942256 C38.9829252,19.6005846 38.803437,19.4424051 38.8240591,19.2405077 C38.8339882,19.1284308 38.7927441,19.1252513 38.8996732,18.8661231 C38.9584843,18.7246359 39.0615945,18.4766359 39.3518307,17.8836615 C39.6428307,17.2875077 40.1186654,16.3384308 40.6051929,15.3980974 L44.8441693,7.88258462 L42.1434449,7.88258462 L41.6378228,8.52086667 C41.280374,8.29591795 40.9107047,8.0972 40.6380354,7.98194359 C40.3707126,7.86191795 40.2011535,7.82694359 40.0224291,7.79991795 C39.8398858,7.76971282 39.6466496,7.75540513 39.4518858,7.75540513 C38.8156575,7.76414872 38.183248,7.95412308 37.4118307,8.42309744 C37.1215945,8.60591795 36.7931693,8.84358462 36.3753819,9.18061026 C35.9568307,9.51604615 35.4496811,9.95481538 34.5025945,11.0636615 C33.5524528,12.1717128 32.162374,13.949841 31.0113583,15.3901487 C29.8626339,16.8368154 28.9483898,17.9440718 28.2984134,18.6650205 C27.6438543,19.3851744 27.2566181,19.6999436 26.9404134,19.9392 C26.6226811,20.1776615 26.3767441,20.3382256 26.1583031,20.4479179 C25.9398622,20.5647641 25.7496811,20.6394821 25.573248,20.6808154 C25.112689,20.7952769 24.6315079,20.7873282 24.2885709,20.5329692 C24.0777677,20.3493538 24.0296496,20.1872 23.9822953,19.9932513 C23.8860591,19.4559179 23.9784764,19.0290718 24.0915157,18.5092256 C24.1587283,18.2055846 24.2618386,17.8494821 24.4061929,17.4544308 C24.5490197,17.0530205 24.7414921,16.5999436 25.0042323,16.0824821 C25.2623898,15.5626359 25.5915787,14.9792 25.9971457,14.3472769 C26.8006417,13.0778667 27.9646417,11.6256359 28.8735394,10.7329949 C29.3234055,10.2823026 29.6946024,9.97230256 29.983311,9.76086667 C30.2704921,9.5542 30.4736575,9.44132821 30.6279409,9.37614872 C30.783752,9.30937949 30.8891535,9.28394359 30.9960827,9.28394359 C31.1427283,9.28712308 31.2710433,9.3062 31.3970669,9.40794359 C31.5551693,9.55737949 31.5765551,9.65673846 31.5971772,9.89678974 C31.6025236,10.0033026 31.5987047,10.1535333 31.5849567,10.3061487 C31.3290906,10.3490718 31.0732244,10.4078923 30.8715866,10.4754564 C30.6722402,10.5414308 30.527122,10.6105846 30.4056811,10.6773538 C30.2819488,10.7488923 30.1834213,10.8148667 30.0963504,10.8800462 C29.4952559,11.358559 29.387563,11.9634564 29.4051299,12.3608923 C29.4379724,12.5516615 29.557122,12.7495846 29.7213346,12.8982256 C30.1933504,13.3346103 30.818122,13.0484564 31.4512953,12.2678923 C31.5658622,12.1272 31.6857756,11.9594821 31.7934685,11.7838154 C32.1463346,11.2194564 32.3586654,10.6773538 32.4617756,10.2067897 C32.6206417,9.4612 32.5984921,8.5876359 31.7552795,7.93186667 C31.4390748,7.71725128 31.1511299,7.62822564 30.7516732,7.62822564 C30.5301772,7.62822564 30.2582717,7.65604615 29.9779646,7.71725128 C29.699185,7.78004615 29.4158228,7.87622564 29.0935079,8.0097641 C28.7704291,8.14807179 28.4099252,8.32612308 27.7339803,8.88730256 C27.0603268,9.45086667 26.0666496,10.4007385 25.2868307,11.0914821 C24.5024291,11.7790462 23.931122,12.2098667 23.4377205,12.5294051 C22.9450827,12.8449692 22.5326417,13.0532256 22.1301299,13.2233282 C21.7322008,13.3910462 21.3442008,13.5182256 20.9508543,13.6152 C21.1845709,13.0778667 21.3976654,12.5294051 21.5588228,12.0604308 C21.7222717,11.5866872 21.8330197,11.1892513 21.9063425,10.8903795 C21.9819567,10.5915077 22.0147992,10.3800718 22.0316024,10.1654564 C22.0652087,9.74417436 22.0193819,9.29825128 21.8948858,8.95645641 C21.8360748,8.79191795 21.7604606,8.64725128 21.6756811,8.52086667 C21.4778622,8.23153333 21.2594213,8.07017436 21.0241772,7.95412308 C20.3948228,7.67114872 19.8426102,7.71725128 19.1674291,7.88735385 C18.8229646,7.98194359 18.4296181,8.13058462 17.9843346,8.35791795 C17.5352323,8.5876359 17.0311378,8.89604615 16.4758701,9.31414872 C15.9221299,9.72827692 15.3195079,10.2481231 14.7199409,10.8562 C14.1211378,11.4595077 13.5215709,12.1486615 12.9831063,12.8537128 C11.9176339,14.2614308 11.1087913,15.7144564 10.6184449,16.9314051 C10.3740354,17.5299436 10.1998937,18.0744308 10.0753976,18.5759949 C9.95166535,19.0823282 9.87834252,19.5322256 9.84091732,19.8970718 C9.8080748,20.2603282 9.81036614,20.5401231 9.83633465,20.7952769 C9.86001181,21.048841 9.9088937,21.2714051 9.97763386,21.4685333 C10.046374,21.6720205 10.1342087,21.8500718 10.2441929,22.0066615 C10.3549409,22.1640462 10.4832559,22.301559 10.6383031,22.4176103 C10.7941142,22.5336615 10.9697835,22.6242769 11.1760039,22.6894564 C11.3806969,22.7506615 11.612122,22.7912 11.8702795,22.7912 C12.128437,22.7912 12.4156181,22.7506615 12.7119646,22.6823026 C13.0090748,22.6091744 13.3176417,22.4994821 13.6521772,22.3349436 C13.9844213,22.1704051 14.3426339,21.9542 14.7382717,21.6624821 C15.1407835,21.3620205 15.582248,20.9773026 16.0993268,20.4558667 C16.6118228,19.9272769 17.2052795,19.2587897 17.9492008,18.2699692 C18.6877756,17.2827385 19.5798701,15.9727897 20.4139173,14.6374051 L22.4837598,14.1247128 C21.8750276,15.2804564 21.3029567,16.4632256 20.9714764,17.2167641 C20.6407598,17.9718923 20.5513976,18.2938154 20.4803661,18.6443538 C20.2550512,19.7420718 20.1878386,20.8604564 20.6690197,21.730841 C20.8156654,21.9963282 21.0043189,22.2276359 21.2319252,22.4263538 C21.4618228,22.6195077 21.7291457,22.7784821 22.0445866,22.8810205 C22.3569724,22.9875333 22.7174764,23.045559 23.0795079,23.0392 C24.0151378,23.0312513 24.8446024,22.8150462 25.9589567,22.0766103 C26.3400827,21.823841 26.7693268,21.5027128 27.357437,20.9550462 C27.946311,20.4097641 28.6879409,19.6443026 29.3982559,18.8351231 C29.3340984,19.5377897 29.2959094,20.2420462 29.2920906,20.6967128 C29.290563,21.1513795 29.3203504,21.3596359 29.3531929,21.5241744 C29.3860354,21.6910974 29.4196417,21.8174821 29.460122,21.929559 C29.4998386,22.0352769 29.5471929,22.1266872 29.595311,22.2069692 C29.7793819,22.4907385 29.9718543,22.5996359 30.1925866,22.6870718 C30.946437,22.8953282 31.5505866,22.7864308 32.3212402,22.4176103 C32.5939094,22.2816872 32.8986575,22.102841 33.2958228,21.8031744 C33.6906969,21.5027128 34.1818071,21.0718923 34.6507677,20.6219949 C34.6247992,20.9113282 34.611815,21.1950974 34.6148701,21.4089179 C34.6202165,21.6163795 34.6370197,21.7459436 34.6599331,21.8532513 C34.6950669,22.0336872 34.7340197,22.1576872 34.8371299,22.3095077 C35.1021614,22.6513026 35.387815,22.7029692 35.7529016,22.7602 C35.8987835,22.7784821 36.0813268,22.7912 36.2653976,22.7912 C36.9864055,22.7832513 37.7181063,22.5296872 38.5933976,21.9343282 C39.0501378,21.6251231 39.5427756,21.2062256 40.0789488,20.6522 C40.6135945,20.0942 41.1940669,19.3970974 41.8012717,18.5251231 C42.4115315,17.6587128 43.0523425,16.6070974 43.6335787,15.5268667 L43.0798386,15.3980974 C42.3152953,16.4330205 41.5308937,17.4425077 41.0267992,18.0648923 L41.0267992,18.0648923 Z M67.9072559,2.54978974 C67.8507362,3.09904615 67.7522087,3.65466154 67.5818858,4.30168718 C67.4138543,4.95268718 67.1702087,5.69668718 66.8990669,6.3922 C66.6256339,7.08453333 66.3254685,7.72917436 66.0359961,8.26889231 C65.7442323,8.80702051 65.4700354,9.23466154 65.2172244,9.58678974 C64.5641929,10.4794308 64.0081614,10.9698667 63.4200512,11.2536359 C62.8075,11.5246872 62.2445945,11.5620462 61.7527205,11.2329692 C61.6152402,11.1352 61.4693583,10.9317128 61.4242953,10.7441231 C61.3227126,10.1106103 61.4991457,9.57009744 61.7557756,8.87935385 C61.8703425,8.59637949 62.0116417,8.29591795 62.2056417,7.96127692 C62.3965866,7.62186667 62.6417598,7.25066154 62.9617835,6.83017436 C63.2818071,6.41127692 63.6797362,5.94150769 64.179248,5.43994359 C64.6810512,4.92804615 65.2905472,4.3772 65.9267756,3.88040513 C66.5599488,3.38202051 67.2236732,2.93927692 67.9072559,2.54978974 L67.9072559,2.54978974 Z M60.4680433,19.5743538 C60.6253819,18.9281231 60.7246732,18.3200462 60.7758465,17.7079949 C60.815563,17.2533282 60.784248,16.7954821 60.6727362,16.4584564 C60.621563,16.3042513 60.5566417,16.1715077 60.4817913,16.0522769 C60.2977205,15.7685077 60.098374,15.6254308 59.8547283,15.5038154 C59.7187756,15.4370462 59.5560906,15.3829949 59.3659094,15.3480205 C59.1749646,15.3066872 58.9534685,15.2876103 58.7060039,15.2876103 C58.4509016,15.2876103 58.1660118,15.3186103 57.8826496,15.3694821 C56.7369803,15.5952256 55.5332638,16.2366872 54.278374,17.6817641 C53.959878,18.054559 53.6398543,18.4822 53.3236496,18.9702513 C53.0105,19.4598923 52.7034606,20.0131231 52.4185709,20.6204051 C52.1321535,21.2213282 51.8640669,21.8826615 51.6349331,22.5718154 C51.4088543,23.2657385 51.2163819,23.9882769 51.0682087,24.7147897 C51.7143661,24.1552 52.3780906,23.6107128 52.8531614,23.2466615 C53.3297598,22.8842 53.6177047,22.7029692 54.0057047,22.4819949 C54.3914134,22.2657897 54.8787047,22.0162 55.3705787,21.7817128 C55.5424291,20.9725333 55.8074606,20.1530205 56.1236654,19.4726103 C56.2680197,19.1506872 56.4215394,18.8693026 56.568185,18.6284564 C56.7163583,18.3852256 56.8622402,18.1865077 57.0035394,18.010841 C57.4014685,17.5172256 57.7749567,17.2437897 58.1438622,17.0840205 C58.688437,16.8964308 59.1161535,16.8169436 59.5660197,17.2596872 C59.7584921,17.5108667 59.7997362,17.7167385 59.8264685,17.9814308 C59.8234134,18.9495846 59.6171929,19.8191744 59.270437,20.8175333 C59.1115709,21.2618667 58.9114606,21.7252769 58.6647598,22.2101487 C58.4195866,22.6894564 58.120185,23.1918154 57.7604449,23.7116615 C57.0501299,24.7513538 56.0457598,25.8729179 54.9604291,26.7719179 C53.9209252,27.6359436 52.837122,28.2511744 52.0962559,28.4936103 C51.7380433,28.6096615 51.4592638,28.6581487 51.2026339,28.6621231 C50.9460039,28.6645077 50.7099961,28.6295333 50.4716969,28.550841 C50.0096102,28.3982256 49.5299567,28.0715333 49.1595236,27.5946103 C48.9785079,27.354559 48.8265157,27.0882769 48.7088937,26.8116615 C48.4713583,26.2361744 48.399563,25.6551231 48.4461535,25.0971231 C48.5210039,24.440559 48.6752874,23.7959179 49.078563,22.6894564 C49.4856575,21.5774308 50.1371614,20.0004051 51.0147441,18.2318154 C51.8946181,16.4727641 52.9959882,14.5165846 54.0584055,12.8115846 C55.1231142,11.1129436 56.1534528,9.66945641 57.0768622,8.48748205 C58.0002717,7.29994359 58.8213346,6.37471282 59.5591457,5.62196923 C60.2961929,4.86922564 60.9499882,4.28658462 61.5350433,3.81761026 C62.1208622,3.35499487 62.6387047,3.00922564 63.1076654,2.73102051 C63.576626,2.4552 64.0020512,2.25171282 64.3946339,2.09512308 C65.4326102,1.66668718 66.3735866,1.64125128 67.4276024,1.65873846 C66.6095945,2.14837949 65.8175551,2.70002051 65.1118228,3.28266154 C63.6919567,4.43999487 62.644815,5.65058462 61.9642874,6.68232821 C61.6205866,7.20694359 61.3570827,7.69022564 61.1485709,8.14330256 C60.9423504,8.59637949 60.7934134,9.02004615 60.6895394,9.42066154 C60.5826102,9.82207179 60.5222717,10.198841 60.4894291,10.4929436 C60.4596417,10.787841 60.4642244,11.004841 60.4886654,11.1892513 C60.5115787,11.3800205 60.5589331,11.5437641 60.6154528,11.6916103 C60.6773189,11.8362769 60.7506417,11.9594821 60.8438228,12.0707641 C60.9370039,12.1836359 61.0485157,12.2790205 61.1745394,12.3553282 C61.3043819,12.4348154 61.4556102,12.4952256 61.6343346,12.5421231 C61.8107677,12.5898154 62.0146969,12.6128667 62.2178622,12.6128667 C62.6486339,12.6128667 63.0870433,12.4952256 63.6171063,12.2416615 C63.8913031,12.1033538 64.1952874,11.9197385 64.5237126,11.6701487 C64.8536654,11.4221487 65.2134055,11.1129436 65.5846024,10.7329949 C65.9519803,10.3506615 66.3292874,9.90553333 66.6875,9.41827692 C67.0457126,8.93022564 67.3863583,8.39527692 67.6773583,7.86430256 C68.2402638,6.84209744 68.6389567,5.80796923 68.8505236,4.91453333 C68.956689,4.48371282 69.0177913,4.09104615 69.0521614,3.69599487 C69.0597992,3.59902051 69.0628543,3.49966154 69.0636181,3.30571282 C69.0590354,3.11414872 69.0521614,2.8216359 69.0506339,2.6157641 C69.0498701,2.40909744 69.0575079,2.29066154 69.0697283,2.16666154 C70.0023031,2.15394359 70.9280039,2.26840513 71.7826732,2.50845641 C72.6403976,2.74850769 73.4309094,3.11414872 74.582689,3.86530256 C75.7306496,4.62043077 77.2414055,5.76186667 78.677311,7.01140513 L81.4009488,4.07912308 C80.5004528,3.26994359 79.5579488,2.52594359 78.7315394,1.96317436 C77.9066575,1.39961026 77.1986339,1.02045641 76.5669882,0.738276923 C75.9353425,0.46245641 75.3785472,0.284405128 74.8637598,0.169148718 C74.0747756,-0.00572307692 73.4423661,-0.0430820513 72.5708937,0.0546871795 C72.2714921,0.0888666667 71.9667441,0.142917949 71.3534291,0.318584615 C70.7424055,0.498225641 69.8327441,0.807430769 68.9314843,1.14922564 C68.4480118,0.820148718 67.941626,0.52445641 67.5696654,0.346405128 C67.1954134,0.171533333 66.9678071,0.108738462 66.725689,0.0689948718 C65.8236654,-0.0860051282 64.9980197,0.0236871795 63.8867205,0.35594359 C63.0801693,0.607917949 62.1139882,0.999789744 60.9767205,1.61978974 C59.838689,2.2437641 58.5333898,3.09507179 57.1837913,4.14748205 C55.8364843,5.19512308 54.451752,6.44943077 53.1785315,7.76096923 C51.9060748,9.07568718 50.7489488,10.4492256 49.7621457,11.7838154 C48.7753425,13.1096615 47.9580984,14.3981487 47.2867362,15.6095333 C46.615374,16.8169436 46.0952402,17.9385077 45.6843268,18.9925077 C45.2734134,20.0536615 44.973248,21.0377128 44.7563346,21.9542 C44.5371299,22.877841 44.4019409,23.7299436 44.3431299,24.4190974 C44.2789724,25.1106359 44.2919567,25.6344564 44.3591693,26.1344308 C44.4240906,26.6336103 44.5447677,27.1160974 44.7257835,27.5675846 C44.9090906,28.0158923 45.1458622,28.439559 45.4399173,28.8226872 C45.7347362,29.2074051 46.0937126,29.5444308 46.4924055,29.8313795 C46.892626,30.1064051 47.3447835,30.3289692 47.8206181,30.4776103 C48.8158228,30.7740974 49.7522165,30.7939692 50.8428937,30.4489949 C51.4088543,30.2741231 52.0557756,30.0022769 52.7599803,29.6000718 C54.1890118,28.7972513 55.7975315,27.4467641 57.0340906,25.9826103 C58.3096024,24.4922256 59.2185,22.9446103 59.7989724,21.5694821 C60.0892087,20.8699949 60.306122,20.2094564 60.4680433,19.5743538 L60.4680433,19.5743538 Z M82.8108858,24.5860205 C82.4648937,25.1464051 82.0784213,25.6789692 81.7645079,26.0748154 C81.4589961,26.4690718 81.2191693,26.7170718 81.0182953,26.9022769 C80.8158937,27.0819179 80.648626,27.199559 80.4790669,27.2726872 C80.1422402,27.4245077 79.7733346,27.4515333 79.5411457,27.2337385 C79.3448543,26.9841487 79.3685315,26.7949692 79.3906811,26.4364821 C79.4074843,26.2759179 79.4403268,26.0620974 79.4907362,25.8212513 C79.5457283,25.5764308 79.6228701,25.3006103 79.7313268,24.9906103 C79.8367283,24.6806103 79.9787913,24.3340462 80.1712638,23.9294564 C80.3637362,23.5272513 80.6081457,23.0694051 80.9136575,22.5583026 C81.223752,22.0472 81.5964764,21.4836359 82.0264843,20.9033795 C82.460311,20.3270974 82.9506575,19.7229949 83.4211457,19.2007641 C83.8977441,18.6753538 84.3521929,18.2230718 84.7340827,17.8860462 C85.1159724,17.5434564 85.4199567,17.3185077 85.6552008,17.1666872 C85.8927362,17.0156615 86.0577126,16.9361744 86.1875551,16.8868923 C86.3173976,16.8368154 86.4151614,16.8169436 86.5106339,16.8169436 C86.6809567,16.8185333 86.8092717,16.8185333 86.9375866,16.9012 C87.1285315,17.0840205 87.0238937,17.2954564 86.9612638,17.5434564 C86.9200197,17.6913026 86.8474606,17.8780974 86.7435866,18.1006615 C86.638185,18.3272 86.4938307,18.5958667 86.3372559,18.8542 L82.8108858,24.5860205 Z M69.4859882,18.457559 C69.4676575,18.6443538 69.4424528,18.8255846 69.4065551,19.0060205 C69.3714213,19.188841 69.3263583,19.3653026 69.1705472,19.7420718 C69.0185551,20.118841 68.7504685,20.6983026 68.4617598,21.2666359 C68.156248,21.1609179 67.8537913,21.0337385 67.6376417,20.9184821 C67.4222559,20.8095846 67.2908858,20.7126103 67.1854843,20.6219949 C67.0747362,20.5329692 66.9914843,20.4439436 66.9227441,20.3565077 C66.7768622,20.1776615 66.6875,20.0131231 66.6241063,19.8223538 C66.3690039,18.8629436 66.5110669,17.8741231 67.5803583,17.0991231 C67.9011457,16.8964308 68.2142953,16.8058154 68.5037677,16.8121744 C68.7985866,16.8169436 69.0170276,16.8312513 69.254563,17.0482513 C69.4806417,17.3161231 69.4920984,17.5434564 69.5111929,17.9114821 C69.5111929,18.0633026 69.5020276,18.2620205 69.4859882,18.457559 L69.4859882,18.457559 Z M67.1167441,23.882559 C66.7493661,24.4334051 66.3720591,24.9476872 66.0054449,25.3920205 C65.6434134,25.8403282 65.2874921,26.2234564 64.9896181,26.5135846 C64.6879252,26.8084821 64.4351142,27.0199179 64.2288937,27.1629949 C64.0242008,27.3068667 63.8660984,27.3895333 63.7454213,27.4435846 C63.6247441,27.496841 63.5346181,27.5167128 63.4383819,27.5167128 C63.1534921,27.5119436 62.8747126,27.3807897 62.6471063,27.0540974 C62.5745472,26.9483795 62.5134449,26.8243795 62.4653268,26.6876615 C62.3576339,26.3601744 62.3263189,26.0915077 62.3652717,25.6614821 C62.388185,25.4222256 62.4370669,25.1106359 62.5157362,24.7863282 C62.5944055,24.4620205 62.7051535,24.1202256 62.8548543,23.7609436 C63.3604764,22.5336615 64.2945787,21.2308667 65.5334291,20.1267897 C65.6533425,20.4145333 65.8106811,20.6919436 66.0558543,20.968559 C66.1681299,21.0981231 66.3040827,21.2213282 66.4682953,21.3548667 C66.6317441,21.4836359 66.8287992,21.6084308 67.1182717,21.7515077 C67.4077441,21.8898154 67.7850512,22.040841 68.173815,22.1640462 C67.844626,22.7602 67.4879409,23.3372769 67.1167441,23.882559 L67.1167441,23.882559 Z M89.3518937,23.045559 C88.8340512,23.7839949 88.2932953,24.5033538 87.8564134,25.0462513 C87.4218228,25.5915333 87.0895787,25.9516103 86.8222559,26.2282256 C86.5572244,26.4976872 86.3532953,26.6797128 86.1837362,26.8116615 C86.0202874,26.9452 85.8835709,27.0310462 85.7743504,27.0930462 C85.5467441,27.2138667 85.3924606,27.2726872 85.1755472,27.2337385 C84.9639803,27.1796872 84.9731457,26.9841487 84.9807835,26.8649179 C85.0128622,26.7719179 84.9425945,26.9022769 85.2427598,26.3029436 C85.4665472,25.8617897 85.8957913,25.0247897 86.3319094,24.1893795 L91.3644528,15.2756872 L88.8882795,15.2756872 L88.0359016,16.0379692 C87.7280984,15.8217641 87.4096024,15.6254308 87.1720669,15.5093795 C86.9352953,15.388559 86.7855945,15.3480205 86.638185,15.3186103 C86.4839016,15.2876103 86.333437,15.2756872 86.1676969,15.2756872 C85.3145551,15.2804564 84.5034213,15.5682 83.6021614,16.1246103 C83.333311,16.2915333 83.0461299,16.4950205 82.7199961,16.7549436 C82.3984449,17.0156615 82.0379409,17.3431487 81.604878,17.7644308 C81.1657047,18.1865077 80.6562638,18.7063538 79.7534764,19.8843538 C78.8499252,21.0631487 77.5537913,22.8921487 76.6410748,24.1424821 C75.7329409,25.3975846 75.2051693,26.0803795 74.8339724,26.5016615 C74.4727047,26.9285077 74.2710669,27.0954308 74.1099094,27.2162513 C73.9495157,27.3338923 73.8326575,27.3974821 73.7280197,27.4388154 C73.5851929,27.4984308 73.4698622,27.5167128 73.328563,27.496841 C73.0971378,27.4841231 72.8275236,27.1296103 72.7893346,26.8847897 C72.7030276,26.424559 72.7526732,26.2178923 72.9115394,25.512841 C73.0054843,25.0971231 73.1689331,24.4818923 73.4163976,23.6957641 C73.6569882,22.9096359 73.9854134,21.9542 74.3344606,21.0083026 C76.2515472,19.7229949 78.1144055,18.3120974 79.5380906,17.0840205 C80.9678858,15.8559436 81.9585079,14.8130718 82.9842638,13.5587641 C84.0031457,12.2965077 85.0579252,10.8291744 86.0202874,9.28394359 L84.8822559,9.41350769 C84.1482638,10.5096359 83.3485866,11.5533026 82.4068465,12.6486359 C81.4681614,13.7384051 80.3874134,14.8774564 79.2027913,15.9704051 C78.0181693,17.0673282 76.7296732,18.1229179 75.3999331,19.0910718 C76.2431457,17.4353538 77.142878,15.7979179 78.0853819,14.1994308 C79.027122,12.6096872 80.0177441,11.0541231 80.9961457,9.62414872 C81.9737835,8.19735385 82.9437835,6.89535385 83.8152559,5.81591795 C84.6920748,4.73727692 85.4642559,3.88040513 86.0974291,3.24291795 C86.728311,2.60781538 87.2171299,2.18971282 87.5982559,1.90514872 C87.9763268,1.62535385 88.2505236,1.47432821 88.4575079,1.38212308 C88.6652559,1.29548205 88.8073189,1.26130256 88.9501457,1.26130256 C89.0173583,1.26130256 89.0860984,1.28355897 89.1487283,1.33125128 C89.4152874,1.57448205 89.3686969,1.71437949 89.3205787,1.9846359 C89.3129409,2.06094359 89.2900276,2.1396359 89.1739331,2.44725128 C89.0578386,2.75168718 88.8439803,3.28266154 88.6201929,3.80727692 L89.645185,3.68327692 C89.8346024,3.37327692 90.0087441,3.05214872 90.1149094,2.8272 C90.2226024,2.60781538 90.2585,2.49017436 90.289815,2.34630256 C90.3218937,2.21037949 90.3448071,2.05378974 90.3577913,1.89640513 C90.3944528,1.37417436 90.3005079,0.868635897 89.8475866,0.444969231 C89.7238543,0.337661538 89.5802638,0.253405128 89.4275079,0.199353846 C88.9005,0.0284564103 88.4254291,0.126225641 87.8189882,0.297123077 C87.3973819,0.423507692 86.9108543,0.623020513 86.3296181,0.953687179 C85.7522008,1.28037949 85.0762559,1.73902051 84.2628307,2.41148205 C83.4494055,3.08394359 82.4923898,3.97499487 81.4124055,5.15458462 C80.326311,6.33178974 79.117248,7.79594359 77.8677047,9.50332821 C76.619689,11.2067385 75.3350118,13.1549692 74.1595551,15.1469179 C72.9818071,17.1372769 71.9094606,19.1753282 70.9402244,21.2618667 L69.5875709,21.2618667 C69.8541299,20.6784308 70.1054134,20.0806872 70.2650433,19.653841 C70.4208543,19.2206359 70.4918858,18.9607128 70.546878,18.6992 C70.702689,17.9846103 70.7347677,17.186559 70.4758465,16.553841 C70.3979409,16.3590974 70.2986496,16.1905846 70.1840827,16.0467128 C69.7372717,15.5173282 69.3469803,15.4100205 68.8039331,15.3980974 C68.5870197,15.4052513 68.3250433,15.4370462 68.0218228,15.5173282 C67.7193661,15.5904564 67.3794843,15.7144564 66.9899567,15.9115846 C66.597374,16.1047385 66.1597283,16.3686359 65.6609803,16.7318923 C65.1622323,17.0991231 64.6092559,17.5641231 64.0226732,18.147559 C63.4353268,18.7309949 62.8166654,19.4233282 62.2331378,20.1720974 C61.0362953,21.7133538 60.0792795,23.3825846 59.5392874,24.6583538 C59.2627992,25.3061744 59.069563,25.8792769 58.9328465,26.3832256 C58.7984213,26.8911487 58.7258622,27.3243538 58.688437,27.7003282 C58.6578858,28.0715333 58.6655236,28.395841 58.7113504,28.6812 C58.7533583,28.9697385 58.8305,29.2256872 58.941248,29.4514308 C59.0519961,29.6803538 59.1940591,29.8798667 59.3659094,30.0444051 C59.5369961,30.2057641 59.7363425,30.3393026 59.9608937,30.423559 C60.1877362,30.5133795 60.4390197,30.5539179 60.6948858,30.5578923 C61.2203661,30.5610718 61.7420276,30.4211744 62.388185,30.0857385 C62.7204291,29.9076872 63.0878071,29.6732 63.5109409,29.3433282 C63.9325472,29.0055077 64.4022717,28.5826359 64.9437913,28.0039692 C65.4914213,27.4205333 66.1070276,26.6828923 66.8135236,25.7099692 C67.5139094,24.7426103 68.3112953,23.5272513 69.0498701,22.2816872 L70.4009961,22.2816872 C69.9511299,23.5002256 69.5287598,24.7290974 69.2851142,25.5080718 C69.0414685,26.2886359 68.9757835,26.6185077 68.9223189,26.9356615 C68.8237913,27.5349949 68.7535236,28.1192256 68.8016417,28.6263538 C68.8268465,28.8584564 68.873437,29.0690974 68.9398858,29.2646359 C69.0063346,29.4585846 69.0934055,29.6286872 69.2003346,29.7892513 C69.3095551,29.9394821 69.4363425,30.0817641 69.5883346,30.1986103 C69.7380354,30.3098923 69.909122,30.3997128 70.0985394,30.4633026 C70.2887205,30.5221231 70.4987598,30.5578923 70.7202559,30.5610718 C71.4657047,30.5539179 72.1844213,30.2900205 73.075752,29.648559 C73.4095236,29.4045333 73.7875945,29.0897641 74.2428071,28.643841 C74.6972559,28.1955333 75.2334291,27.6097128 75.739815,26.9936872 C75.7069724,27.3760205 75.6932244,27.7591487 75.7008622,28.0786872 C75.7077362,28.395841 75.7314134,28.643841 75.7627283,28.8520974 C75.7963346,29.0539949 75.8391063,29.2217128 75.8849331,29.3671744 C75.9307598,29.5102513 75.9834606,29.6263026 76.0392165,29.7272513 C76.1591299,29.9466359 76.2882087,30.0817641 76.4241614,30.1866872 C76.699122,30.3750718 76.9267283,30.4370718 77.2925787,30.4323026 C77.4415157,30.4283282 77.6294055,30.4148154 77.8241693,30.3750718 C78.209878,30.2947897 78.5749646,30.1556872 79.037815,29.8639692 C79.2730591,29.7137385 79.5357992,29.5213795 79.9024134,29.1875333 C80.2644449,28.8584564 80.7326417,28.3815333 81.178689,27.8879179 C81.1489016,28.2384564 81.1359173,28.5905846 81.1389724,28.8584564 C81.1443189,29.1247385 81.1687598,29.3051744 81.1962559,29.4466615 C81.2222244,29.5984821 81.2497205,29.7113538 81.289437,29.8099179 C81.3772717,30.1016359 81.6682717,30.4092513 81.9012244,30.472841 C82.6512559,30.6810974 83.2653346,30.503841 84.0970906,30.0857385 C84.4262795,29.9076872 84.7936575,29.6732 85.1999882,29.3473026 C85.6040276,29.0166359 86.0516024,28.5969436 86.558752,28.0397385 C87.064374,27.4777641 87.6242244,26.7806615 88.2192087,25.9086872 C88.8157205,25.0438667 89.4557677,23.9970205 90.0392953,22.9167897 L89.3518937,23.045559 Z M92.6850276,3.02273846 C91.4759646,3.76991795 90.3990354,4.2587641 89.1609488,4.58307179 C87.9220984,4.91453333 86.5228543,5.09337949 85.1457598,5.07589231 L82.6229961,8.25935385 C82.8307441,8.29273846 83.035437,8.31817436 83.2095787,8.33248205 C83.5509882,8.37540513 83.9290591,8.39209744 84.4132953,8.38812308 C85.3176102,8.39209744 86.2333819,8.26253333 87.1972717,7.9986359 C89.1349803,7.4772 91.3064055,6.30794359 92.9897756,4.81278974 C93.8390984,4.06640513 94.5608701,3.26437949 95.1367598,2.47984103 C95.7118858,1.69053333 96.1495315,0.919507692 96.4810118,0.106353846 C95.2329961,1.2517641 93.8940906,2.26840513 92.6850276,3.02273846 L92.6850276,3.02273846 Z M50.131815,7.90086667 L47.2065394,7.90086667 L45.7293898,10.7035846 L48.541626,10.7035846 L50.131815,7.90086667 Z M34.0145394,25.6551231 C32.685563,25.3554564 31.1152323,25.1909179 29.5303898,25.2084051 C28.1181614,25.1273282 26.6883661,25.2425846 24.1098465,25.8522513 C21.5290354,26.4690718 17.8010276,27.5771231 15.3271457,28.2122256 C12.8509724,28.8441487 11.6304528,29.0055077 10.413752,29.0309436 C9.8157126,29.0309436 9.22072835,28.9776872 8.70059449,28.8783282 C8.17435039,28.780559 7.72372047,28.6343026 7.33419291,28.4618154 C6.9393189,28.2933026 6.60554724,28.0914051 6.31531102,27.8704308 C6.02736614,27.6502513 5.78066535,27.4054308 5.56757087,27.1463026 C5.3537126,26.8847897 5.17804331,26.6081744 5.0329252,26.3061231 C4.88398819,26.0056615 4.76636614,25.6829436 4.6785315,25.3371744 C4.59146063,24.9874308 4.53035827,24.6122513 4.50438976,24.2020974 C4.47536614,23.7959179 4.47918504,23.3579436 4.5181378,22.9167897 C4.58000394,22.2506872 4.70984646,21.5869692 4.97793307,20.6967128 C5.24678346,19.8024821 5.65158661,18.6801231 6.27559449,17.310559 C6.89731102,15.9457641 7.73594094,14.3417128 8.69142913,12.7416359 C9.65073622,11.1518923 10.7230827,9.5796359 11.7358543,8.24584103 C12.7463346,6.91999487 13.6957126,5.84135385 14.5289961,4.98925128 C15.3622795,4.13714872 16.084815,3.5147641 16.7057677,3.03704615 C17.328248,2.56489231 17.8468543,2.24694359 18.3089409,2.01007179 C18.7649173,1.77240513 19.1689567,1.62535385 19.5264055,1.52837949 C19.888437,1.4322 20.203878,1.38848205 20.5216102,1.38848205 C20.7285945,1.39484103 20.8874606,1.40437949 21.0516732,1.54666154 C21.2074843,1.72073846 21.2181772,1.86222564 21.2273425,2.1197641 C21.2311614,2.23104615 21.225815,2.38525128 21.2135945,2.53389231 C20.7369961,2.7652 20.2115157,3.13640513 19.8067126,3.49966154 C19.6195866,3.66896923 19.4821063,3.81761026 19.3690669,3.94796923 C19.0834134,4.2897641 18.904689,4.61009744 18.8703189,4.94791795 C18.814563,5.19512308 19.0765394,5.6426359 19.2636654,5.76186667 C19.8380276,6.23004615 20.5559803,5.91686667 21.2716417,5.07589231 C21.4114134,4.90737949 21.5496575,4.70786667 21.6764449,4.49007179 C21.8024685,4.27307179 21.9177992,4.03778974 22.0094528,3.80250769 C22.3623189,2.85502051 22.5647205,1.87732821 22.0422953,1.04509744 C21.9216181,0.856712821 21.7658071,0.689789744 21.5779173,0.551482051 C21.3915551,0.414764103 21.1685315,0.303482051 20.910374,0.227174359 C20.6537441,0.149276923 20.3642717,0.106353846 19.926626,0.119866667 C19.4912717,0.127815385 18.9138543,0.192994872 18.2539488,0.346405128 C17.5970984,0.503789744 16.8653976,0.754969231 16.0405157,1.13571282 C15.2156339,1.52043077 14.3029173,2.03232821 13.2863268,2.73658462 C12.2743189,3.43766154 11.158437,4.32791795 10.008185,5.39861026 C8.86098819,6.47645641 7.67865748,7.73394359 6.58645276,9.07012308 C4.36309055,11.7790462 2.62320079,14.6827128 1.6264685,16.9576359 C1.11091732,18.1133795 0.758814961,19.1379692 0.508295276,20.0433282 C0.260830709,20.9494821 0.118767717,21.7419692 0.0515551181,22.5344564 C-0.0393346457,23.5813026 -0.0133661417,24.6241744 0.153901575,25.4985333 C0.234862205,25.9134564 0.33873622,26.2886359 0.470870079,26.6423538 C0.601476378,26.9960718 0.755759843,27.3203795 0.940594488,27.6192513 C1.12466535,27.9252769 1.33852362,28.2010974 1.58598819,28.4634051 C1.83650787,28.7249179 2.12216142,28.9697385 2.45898819,29.1930974 C2.79581496,29.4212256 3.18075984,29.6215333 3.64590157,29.8051487 C4.10798819,29.9863795 4.64950787,30.1477385 5.32163386,30.2550462 C5.98994094,30.3703026 6.79190945,30.4323026 7.59387795,30.4323026 C8.85487795,30.472841 10.1288622,30.3726872 12.2682087,29.8846359 C14.4098465,29.3942 17.4191378,28.5293795 19.5684134,28.0460974 C21.7161614,27.558841 23.0008386,27.4563026 24.2710039,27.5024051 C25.0729724,27.4984308 25.871122,27.558841 26.5134606,27.6748923 C27.1527441,27.7837897 27.6369803,27.9427641 28.0853189,28.1518154 C28.5344213,28.3521231 28.9506811,28.6040974 29.3990197,28.9872256 C29.848122,29.3671744 30.3377047,29.8750974 30.7753504,30.4323026 C32.1829961,29.4466615 33.6234843,28.8640205 34.7080512,28.6772256 C35.2518622,28.5675333 35.7406811,28.519841 36.2264449,28.519841 C36.4326654,28.5222256 36.6343031,28.5436872 36.8756575,28.5786615 C37.1154843,28.6096615 37.3919724,28.6645077 38.1672087,28.9260205 C38.9416811,29.1930974 40.220248,29.6732 41.4858307,30.1747641 C40.2477441,28.9625846 38.8851614,27.8879179 37.6592953,27.1351744 C36.4326654,26.3832256 35.3450433,25.9516103 34.0145394,25.6551231 L34.0145394,25.6551231 Z" id="Fill-1" fill="#FEFEFE" mask="url(#mask-2)"></path>
                            </g>
                        </g>
                    </g>
                </g>
            </g>
        </g>
    </g>
</svg>