<?xml version="1.0" encoding="UTF-8"?>
<svg width="167px" height="27px" viewBox="0 0 167 27" version="1.1" xmlns="http://www.w3.org/2000/svg" xmlns:xlink="http://www.w3.org/1999/xlink">
    <!-- Generator: Sketch 53.2 (72643) - https://sketchapp.com -->
    <title>logos - alternative</title>
    <desc>Created with Sketch.</desc>
    <g id="Page-1" stroke="none" stroke-width="1" fill="none" fill-rule="evenodd">
        <g id="happy-hour_home_04a" transform="translate(-1037.000000, -3816.000000)" fill="#FFFFFF">
            <g id="logo-farm" transform="translate(0.000000, 3600.000000)">
                <g id="logos" transform="translate(121.000000, 120.000000)">
                    <g id="row-1" transform="translate(0.000000, 47.000000)">
                        <g id="logos-/-alternative" transform="translate(916.000000, 49.000000)">
                            <path d="M78.5908519,6.70568276 L71.9817933,6.70568276 C71.8627268,6.70568276 71.7611079,6.80474483 71.7611079,6.92335862 L71.7611079,19.8930414 C71.7611079,20.0137034 71.8627268,20.1114621 71.9817933,20.1114621 L78.5908519,20.1114621 C78.7133697,20.1114621 78.8147968,20.0137034 78.8147968,19.8958345 L78.8147968,18.8003793 C78.8147968,18.6800897 78.7133697,18.5825172 78.5908519,18.5825172 L73.7054788,18.5825172 C73.582961,18.5825172 73.4811504,18.4868069 73.4811504,18.3676345 L73.4811504,13.8508138 C73.4811504,13.7314552 73.582961,13.6338828 73.7054788,13.6338828 L78.0894684,13.6338828 C78.2104524,13.6338828 78.3126464,13.5370552 78.3126464,13.418069 L78.3126464,12.3214966 C78.3126464,12.2013931 78.2104524,12.1056828 78.0894684,12.1056828 L73.7054788,12.1056828 C73.582961,12.1056828 73.4811504,12.0062483 73.4811504,11.8887517 L73.4811504,8.45342069 C73.4811504,8.33462069 73.582961,8.23574483 73.7054788,8.23574483 L78.5908519,8.23574483 C78.7133697,8.23574483 78.8147968,8.13686897 78.8147968,8.01881379 L78.8147968,6.92335862 C78.8147968,6.80474483 78.7133697,6.70568276 78.5908519,6.70568276" id="Fill-1"></path>
                            <path d="M162.793556,6.70568276 L156.183155,6.70568276 C156.063321,6.70568276 155.961894,6.80474483 155.961894,6.92335862 L155.961894,19.8930414 C155.961894,20.0137034 156.063321,20.1114621 156.183155,20.1114621 L162.793556,20.1114621 C162.915115,20.1114621 163.014816,20.0137034 163.014816,19.8958345 L163.014816,18.8009379 C163.014816,18.6800897 162.915115,18.5825172 162.793556,18.5825172 L157.905307,18.5825172 C157.78298,18.5825172 157.682512,18.4868069 157.682512,18.3676345 L157.682512,13.8508138 C157.682512,13.7314552 157.78298,13.6338828 157.905307,13.6338828 L162.29083,13.6338828 C162.411431,13.6338828 162.512282,13.5370552 162.512282,13.418069 L162.512282,12.3214966 C162.512282,12.2013931 162.411431,12.1056828 162.29083,12.1056828 L157.905307,12.1056828 C157.78298,12.1056828 157.682512,12.0062483 157.682512,11.8887517 L157.682512,8.45342069 C157.682512,8.33462069 157.78298,8.23574483 157.905307,8.23574483 L162.793556,8.23574483 C162.915115,8.23574483 163.014816,8.13686897 163.014816,8.01881379 L163.014816,6.92335862 C163.014816,6.80474483 162.915115,6.70568276 162.793556,6.70568276" id="Fill-2"></path>
                            <path d="M68.2422204,6.70568276 L58.786876,6.70568276 C58.6645499,6.70568276 58.564465,6.80474483 58.564465,6.92335862 L58.564465,8.01881379 C58.564465,8.13686897 58.6645499,8.23574483 58.786876,8.23574483 L62.4301986,8.23574483 C62.5550172,8.23574483 62.654527,8.33313103 62.654527,8.45342069 L62.654527,19.8958345 C62.654527,20.0137034 62.7553789,20.1122069 62.8780884,20.1122069 L64.1525419,20.1122069 C64.2746762,20.1122069 64.3774455,20.0137034 64.3774455,19.8958345 L64.3774455,8.45342069 C64.3774455,8.33313103 64.47638,8.23574483 64.6000482,8.23574483 L68.2422204,8.23574483 C68.3651217,8.23574483 68.4675075,8.13686897 68.4675075,8.01881379 L68.4675075,6.92335862 C68.4675075,6.80474483 68.3651217,6.70568276 68.2422204,6.70568276" id="Fill-3"></path>
                            <path d="M38.984434,15.2226 C38.8605741,15.2226 38.8040126,15.1337793 38.8525212,15.0241034 L41.1249483,9.99912414 C41.1747991,9.89093793 41.2572445,9.89093793 41.3053697,9.99912414 L43.7070253,15.2226 L38.984434,15.2226 Z M41.5774397,6.90306207 C41.527589,6.79506207 41.3851309,6.70568276 41.2616544,6.70568276 L41.1717313,6.70568276 C41.0474879,6.70568276 40.906372,6.79506207 40.8561378,6.90306207 L34.7172101,19.916131 C34.6675511,20.024131 34.7243042,20.1114621 34.8495063,20.1114621 L36.2518462,20.1114621 C36.3743639,20.1114621 36.5166303,20.024131 36.5682067,19.9144552 L37.9530987,16.9476207 C38.0077428,16.8390621 38.1482836,16.7526621 38.2708014,16.7526621 L44.4110712,16.7526621 L45.8644122,19.9144552 C45.9161803,20.024131 46.0565293,20.1114621 46.1784719,20.1114621 L47.5833042,20.1114621 C47.7060138,20.1114621 47.7629587,20.024131 47.7146418,19.916131 L41.5774397,6.90306207 L41.5774397,6.90306207 Z" id="Fill-4"></path>
                            <path d="M57.5818301,18.5834483 L52.6983743,18.5834483 C52.5727887,18.5834483 52.4742377,18.4877379 52.4742377,18.3693103 L52.4742377,6.9228 C52.4742377,6.80474483 52.3735775,6.70568276 52.2514432,6.70568276 L50.9779483,6.70568276 C50.8554305,6.70568276 50.7520861,6.80474483 50.7520861,6.9228 L50.7520861,19.8971379 C50.7520861,20.0155655 50.8519793,20.1122069 50.9779483,20.1122069 L57.5818301,20.1122069 C57.7051148,20.1122069 57.805775,20.0155655 57.805775,19.8971379 L57.805775,18.8009379 C57.805775,18.6812069 57.7051148,18.5834483 57.5818301,18.5834483" id="Fill-5"></path>
                            <path d="M84.5301848,12.8119655 L84.5301848,8.4321931 C84.5301848,8.31227586 84.6151228,8.21395862 84.7384076,8.21395862 L87.860023,8.21395862 C89.4717359,8.21395862 90.4144902,9.0855931 90.4144902,10.5219931 C90.4144902,11.9686345 89.4935936,12.8119655 87.860023,12.8119655 L84.5301848,12.8119655 Z M89.3844971,14.3707034 C89.3078037,14.2308621 89.3321538,14.111131 89.5058645,14.0634621 L89.5039472,14.0634621 C91.1595672,13.5526966 92.1216866,12.2630276 92.1216866,10.5035586 C92.1216866,8.2431931 90.4731607,6.70568276 87.993853,6.70568276 L83.0304443,6.70568276 C82.9106108,6.70568276 82.808992,6.80474483 82.808992,6.92335862 L82.808992,19.8958345 C82.808992,20.0137034 82.9106108,20.1114621 83.0304443,20.1114621 L84.2905178,20.1114621 C84.4115017,20.1114621 84.5148462,20.0137034 84.5148462,19.8958345 L84.5148462,14.5187379 C84.5148462,14.3984483 84.6151228,14.3005034 84.7384076,14.3005034 L87.1901056,14.3005034 C87.3131986,14.3005034 87.4541228,14.391 87.5039736,14.4982552 L90.3132549,19.9086828 C90.3600379,20.0181724 90.495977,20.1114621 90.6204122,20.1114621 L92.2355763,20.1114621 C92.3575189,20.1114621 92.4112044,20.0259931 92.353876,19.9183655 L89.3844971,14.3707034 L89.3844971,14.3707034 Z" id="Fill-6"></path>
                            <path d="M118.834017,15.2244621 L114.130599,15.2244621 L116.599937,9.90937241 L118.968039,15.0241034 C119.017506,15.1337793 118.957302,15.2244621 118.834017,15.2244621 Z M116.960013,6.90306207 C116.910737,6.79711034 116.769813,6.70568276 116.647487,6.70568276 L116.55603,6.70568276 C116.435429,6.70568276 116.291246,6.79506207 116.241395,6.90306207 L110.104576,19.916131 C110.052425,20.024131 110.112054,20.1122069 110.23553,20.1122069 L111.638829,20.1122069 C111.76058,20.1122069 111.903038,20.024131 111.952889,19.916131 L113.420993,16.7526621 L119.546308,16.7526621 C119.669592,16.7526621 119.811475,16.841669 119.861326,16.9476207 L121.251587,19.9144552 C121.302588,20.024131 121.443704,20.1122069 121.566222,20.1122069 L122.970862,20.1122069 C123.091846,20.1122069 123.148791,20.024131 123.101241,19.916131 L116.960013,6.90306207 L116.960013,6.90306207 Z" id="Fill-7"></path>
                            <path d="M132.89883,6.70568276 L123.442335,6.70568276 C123.316558,6.70568276 123.219157,6.80474483 123.219157,6.92335862 L123.219157,8.01881379 C123.219157,8.13686897 123.316558,8.23574483 123.442335,8.23574483 L127.088342,8.23574483 C127.21086,8.23574483 127.309603,8.33313103 127.309603,8.45342069 L127.309603,19.8958345 C127.309603,20.0137034 127.409304,20.1122069 127.533548,20.1122069 L128.8057,20.1122069 C128.92956,20.1122069 129.031754,20.0137034 129.031754,19.8958345 L129.031754,8.45342069 C129.031754,8.33313103 129.131072,8.23574483 129.254741,8.23574483 L132.89883,8.23574483 C133.02269,8.23574483 133.121241,8.13686897 133.121241,8.01881379 L133.121241,6.92335862 C133.121241,6.80474483 133.02269,6.70568276 132.89883,6.70568276" id="Fill-8"></path>
                            <path d="M138.04822,6.70568276 L136.77415,6.70568276 C136.650674,6.70568276 136.549055,6.80474483 136.549055,6.92335862 L136.549055,19.8958345 C136.549055,20.0137034 136.650674,20.1114621 136.77415,20.1114621 L138.04822,20.1114621 C138.17208,20.1114621 138.271398,20.0137034 138.271398,19.8958345 L138.271398,6.92335862 C138.271398,6.80474483 138.17208,6.70568276 138.04822,6.70568276" id="Fill-9"></path>
                            <path d="M153.380584,6.70568276 L151.941815,6.70568276 C151.818914,6.70568276 151.681441,6.79711034 151.635041,6.90678621 L147.59483,16.5577034 L143.582995,6.90678621 C143.536596,6.79711034 143.397972,6.70568276 143.276413,6.70568276 L141.837261,6.70568276 C141.71666,6.70568276 141.652238,6.79711034 141.701705,6.90678621 L147.232645,19.9111034 C147.278853,20.0211517 147.416518,20.1122069 147.538652,20.1122069 L147.69549,20.1122069 C147.793658,20.1122069 147.901029,20.0537379 147.966026,19.9734828 C147.979064,19.959331 147.993636,19.9382897 148.005524,19.9111034 L153.518824,6.90678621 C153.565799,6.79711034 153.505595,6.70568276 153.380584,6.70568276" id="Fill-10"></path>
                            <path d="M106.990247,6.70568276 L105.724613,6.70568276 C105.600178,6.70568276 105.496067,6.80474483 105.496067,6.9282 L105.496067,16.3808069 C105.496067,16.503331 105.429152,16.5264207 105.34709,16.4361103 L97.6612549,6.87103448 C97.5782342,6.78016552 97.4097003,6.70568276 97.2823892,6.70568276 L96.5804524,6.70568276 C96.4550586,6.70568276 96.3551653,6.80474483 96.3551653,6.9282 L96.3551653,19.8921103 C96.3551653,20.0137034 96.4550586,20.1122069 96.5804524,20.1122069 L97.8478117,20.1122069 C97.973589,20.1122069 98.0769334,20.0137034 98.0769334,19.8921103 L98.0769334,10.1730414 C98.0769334,10.0508897 98.1440402,10.0259379 98.2282113,10.1145724 L106.074719,19.9483448 C106.158315,20.0390276 106.329724,20.1122069 106.453393,20.1122069 L106.990247,20.1122069 C107.114299,20.1122069 107.215726,20.0137034 107.215726,19.8921103 L107.215726,6.9282 C107.215726,6.80474483 107.114299,6.70568276 106.990247,6.70568276" id="Fill-11"></path>
                            <path d="M13.9925293,10.2097241 C14.080535,10.2136345 14.1681573,10.271731 14.2369897,10.3789862 C14.305822,10.4962966 15.8521538,13.0977931 15.8521538,13.0977931 C15.8922262,13.1629655 15.9516636,13.2780414 16.044271,13.149 C16.1247991,13.0341103 16.476822,12.4559379 16.5404776,12.3533379 C16.6050918,12.2494345 16.626566,12.2023241 16.588411,12.1380828 C16.5707715,12.1110828 15.2453169,9.87511034 14.4162606,8.52417931 C13.9823674,7.81417241 12.8292813,5.93348276 12.8292813,5.00952414 C12.8292813,4.55834483 12.9435545,3.51018621 14.0174546,3.51018621 C15.0907796,3.51018621 15.2069701,4.55834483 15.2069701,5.00952414 C15.2069701,5.24731034 15.1237577,5.69048276 14.7517945,6.48949655 L14.6380964,6.72002069 C14.6357956,6.72467586 14.6357956,6.73007586 14.6331114,6.73528966 C14.631961,6.73771034 14.6304271,6.74162069 14.6275511,6.7446 L14.6304271,6.74515862 C14.6137463,6.80251034 14.6507509,6.85408966 14.6927405,6.91777241 C14.7402905,6.99206897 15.1181975,7.6490069 15.1728416,7.7301931 C15.2274856,7.81137931 15.297085,7.80802759 15.3768462,7.67898621 L15.639713,7.21886897 C16.1033249,6.28485517 16.3295706,5.56255862 16.3295706,5.00952414 C16.3295706,3.72134483 15.6145959,2.42013103 14.0174546,2.42013103 C12.4206969,2.42013103 11.7059139,3.72134483 11.7059139,5.00952414 C11.7059139,5.8914 12.2709529,7.07027586 12.9742319,8.28248276 C13.2877164,8.81242759 13.2961527,8.98597241 13.113814,9.29675172 L10.7033387,13.3447034 C10.6341228,13.4633172 10.5422824,13.5236483 10.4514007,13.5268138 C10.3595603,13.5236483 10.2675281,13.4633172 10.198504,13.3447034 L8.4771194,10.4869862 C8.32986797,10.2410069 8.00449598,10.156469 7.75198278,10.2976138 L7.71421125,10.3221931 C7.46073938,10.4640828 7.37503444,10.779331 7.52132721,11.0256828 L9.7293318,14.7038276 L9.8131194,14.8462759 L7.17620666,19.2835862 C7.10469001,19.4051793 7.00767279,19.467 6.91295637,19.467 L6.91180597,19.467 C6.90624569,19.467 6.90126062,19.4649517 6.89838462,19.4649517 C6.80731114,19.4593655 6.71738806,19.3990345 6.64855568,19.2820966 L6.64261194,19.2701793 L4.97222847,16.4364828 C4.82785304,16.1908759 4.50152239,16.1044759 4.24766705,16.2471103 L4.20951206,16.2668483 C3.95450631,16.4072483 3.86841791,16.7230552 4.01183467,16.9690345 L6.64472101,21.4348345 C6.66159357,21.4633241 6.67961653,21.4888345 6.69974856,21.5108069 C6.71585419,21.5298 6.73349369,21.5448828 6.75113318,21.557731 C6.75305052,21.5601517 6.75458439,21.5625724 6.75630999,21.5642483 C6.7614868,21.5676 6.7637876,21.5716966 6.76762227,21.5746759 L6.76838921,21.5746759 C6.76915614,21.5746759 6.77049828,21.5746759 6.77049828,21.5754207 C6.77049828,21.5776552 6.77049828,21.5776552 6.77241561,21.5776552 C6.79561538,21.5923655 6.82111596,21.6042828 6.84776693,21.6111724 C6.84891734,21.6111724 6.85064294,21.6111724 6.85179334,21.6111724 C6.89895982,21.6242069 6.94766016,21.6214138 6.99444317,21.6026069 C6.99636051,21.6020483 6.99712744,21.6007448 6.99942824,21.6007448 C7.01783467,21.5923655 7.0379667,21.582869 7.057907,21.5692759 C7.06480941,21.5642483 7.07056142,21.557731 7.07803904,21.5514 C7.09030999,21.5398552 7.10469001,21.5284966 7.11696096,21.5149034 C7.1365178,21.4925586 7.15588289,21.465931 7.17313892,21.438 L13.7403995,10.3912759 C13.8107658,10.275269 13.9014558,10.2141931 13.9925293,10.2097241" id="Fill-12"></path>
                            <path d="M21.302566,19.3327448 C21.2757233,19.368869 21.2467715,19.4001517 21.2157107,19.4208207 C21.2145603,19.4219379 21.2116843,19.4245448 21.2078496,19.4249172 C21.1900184,19.4383241 21.1681607,19.4487517 21.1476452,19.4554552 C21.0289621,19.4938138 20.9014592,19.4362759 20.810961,19.2835862 L18.5452445,15.4723034 C18.2331022,14.9425448 18.2244742,14.7691862 18.4060459,14.4582207 L20.4671825,11.0256828 C20.6142423,10.779331 20.5262365,10.4640828 20.273915,10.3221931 L20.23576,10.2976138 C19.9832468,10.156469 19.6565327,10.2410069 19.5111986,10.4869862 L14.2467681,19.2874966 C14.1760184,19.4051793 14.0860953,19.4662552 13.9925293,19.4699793 C13.9026062,19.4662552 13.8107658,19.4051793 13.7427003,19.2874966 L12.094558,16.5366621 C12.056403,16.4711172 11.9963904,16.3549241 11.9043582,16.4867586 C11.824597,16.6007172 11.4890631,17.1695793 11.4238737,17.2729241 C11.3590677,17.376269 11.3381688,17.4215172 11.3774742,17.4874345 L13.7450011,21.4331586 C13.8138335,21.5473034 13.9026062,21.6080069 13.9925293,21.6137793 C14.0860953,21.6080069 14.174101,21.5473034 14.2437003,21.4331586 L17.5361504,15.9214345 L20.8151791,21.438 C20.959938,21.6823034 21.1986464,21.6823034 21.3437887,21.4348345 L23.974566,16.9690345 C24.1212423,16.7230552 24.0311274,16.4072483 23.778806,16.2668483 L23.7412262,16.2471103 C23.4862204,16.1044759 23.1612319,16.1908759 23.0166648,16.4364828 L21.337845,19.2820966 C21.3280666,19.3014621 21.3154122,19.3174759 21.302566,19.3327448" id="Fill-13"></path>
                            <path d="M13.9925293,25.7218759 C7.00268772,25.7218759 1.3137589,20.1991655 1.3137589,13.4085724 C1.3137589,6.61928276 7.00268772,1.09489655 13.9925293,1.09489655 C20.9850551,1.09489655 26.6734087,6.61928276 26.6734087,13.4085724 C26.6734087,20.1991655 20.9850551,25.7218759 13.9925293,25.7218759 Z M13.9925293,0.00409655172 C6.38300459,0.00409655172 0.190966705,6.01727586 0.190966705,13.4085724 C0.190966705,20.8008 6.38300459,26.8145379 13.9925293,26.8145379 C21.6062721,26.8145379 27.7975431,20.8008 27.7975431,13.4085724 C27.7975431,6.01727586 21.6062721,0.00409655172 13.9925293,0.00409655172 L13.9925293,0.00409655172 Z" id="Fill-14"></path>
                            <path d="M166.468898,20.0459172 C166.270837,20.2375241 166.033087,20.3323034 165.751431,20.3306276 C165.473225,20.3293241 165.234325,20.2321241 165.041057,20.0390276 C164.84779,19.845931 164.750006,19.6120552 164.752307,19.3392621 C164.753073,19.0672138 164.852008,18.836131 165.048152,18.6454552 C165.246596,18.4551517 165.484154,18.3598138 165.761592,18.3614897 C166.041715,18.3618621 166.280615,18.4592483 166.476759,18.652531 C166.670793,18.8448828 166.767427,19.0770828 166.766277,19.3480138 C166.76551,19.6222966 166.666959,19.8543103 166.468898,20.0459172 Z M166.590265,18.537269 C166.359226,18.3173586 166.082171,18.2052621 165.755649,18.2052621 C165.434303,18.2052621 165.160507,18.3173586 164.93292,18.537269 C164.701689,18.7594138 164.587607,19.0284828 164.587607,19.3426138 C164.587607,19.6576759 164.701689,19.9291655 164.929852,20.1516828 C165.156098,20.3758759 165.433153,20.4872276 165.755649,20.4872276 C166.082171,20.4872276 166.359226,20.3758759 166.590265,20.1516828 C166.817278,19.9282345 166.934044,19.6576759 166.934044,19.3426138 C166.934044,19.0264345 166.817278,18.7594138 166.590265,18.537269 L166.590265,18.537269 Z" id="Fill-15"></path>
                            <path d="M166.023316,19.2975517 C165.977819,19.3133793 165.904179,19.320269 165.808494,19.320269 L165.605164,19.320269 L165.605164,18.9512069 L165.797472,18.9512069 C165.922003,18.9512069 166.014639,18.9642414 166.0728,18.9897517 C166.128616,19.0141448 166.155586,19.0642345 166.155586,19.1392759 C166.155586,19.2184138 166.113138,19.2705517 166.023316,19.2975517 Z M166.357744,19.7826207 C166.356806,19.7556207 166.356806,19.7310414 166.356806,19.7075793 L166.356806,19.6329103 C166.356806,19.5820759 166.333823,19.5291931 166.287153,19.4750069 C166.239545,19.4206345 166.166609,19.3878621 166.06553,19.3750138 C166.144564,19.3657034 166.208354,19.3476414 166.25174,19.3258552 C166.33523,19.2820966 166.376975,19.2150621 166.376975,19.1238207 C166.376975,18.9951517 166.309667,18.9096828 166.176224,18.8653655 C166.102584,18.841531 165.985793,18.8286828 165.825849,18.8286828 L165.376975,18.8286828 L165.376975,19.8500276 L165.605164,19.8500276 L165.605164,19.4472621 L165.782697,19.4472621 C165.901834,19.4472621 165.985793,19.4588069 166.034339,19.4811517 C166.11478,19.5189517 166.155586,19.5966 166.155586,19.7140966 L166.155586,19.7952828 L166.159808,19.8269379 C166.161215,19.8323379 166.161215,19.8349448 166.163326,19.8390414 C166.16614,19.8431379 166.16614,19.845931 166.166609,19.8500276 L166.376975,19.8500276 L166.370408,19.8360621 C166.365483,19.8286138 166.361731,19.8105517 166.357744,19.7826207 L166.357744,19.7826207 Z" id="Fill-16"></path>
                        </g>
                    </g>
                </g>
            </g>
        </g>
    </g>
</svg>