<?xml version="1.0" encoding="UTF-8"?>
<svg width="18px" height="19px" viewBox="0 0 18 19" version="1.1" xmlns="http://www.w3.org/2000/svg" xmlns:xlink="http://www.w3.org/1999/xlink">
    <!-- Generator: Sketch 53.2 (72643) - https://sketchapp.com -->
    <title>logo - OG Copy</title>
    <desc>Created with Sketch.</desc>
    <g id="Symbols" stroke="none" stroke-width="1" fill="none" fill-rule="evenodd">
        <g id="modules-/-footer" transform="translate(-1182.000000, -40.000000)" fill="#FFFFFF">
            <g id="Group-2" transform="translate(130.000000, 40.000000)">
                <g id="Group" transform="translate(1052.000000, 0.000000)">
                    <g id="logo-/-OG-Copy">
                        <path d="M14.63114,0.000111764706 L8.90074,11.9924647 L6.88420667,11.9924647 C6.66127333,11.9924647 6.50927333,11.7957588 6.59034,11.6135824 L11.80014,0.00234705882 L8.65754,0.00234705882 L5.89620667,6.16281765 L3.63267333,6.16281765 C3.40720667,6.16281765 3.25520667,5.95828824 3.34387333,5.77499412 L6.16347333,0.00234705882 L3.02340667,0.00234705882 L0.0518066667,6.08458235 C-0.126793333,6.45117059 0.177206667,6.86022941 0.629406667,6.86022941 L5.58207333,6.86022941 L3.30714,11.9343471 C3.14374,12.2987 3.44774,12.6921118 3.89107333,12.6921118 L8.56760667,12.6909941 L5.78600667,18.5117 L8.92607333,18.5117 L17.7712067,0.000111764706 L14.63114,0.000111764706 Z" id="Fill-1"></path>
                    </g>
                </g>
            </g>
        </g>
    </g>
</svg>