<?xml version="1.0" encoding="UTF-8"?>
<svg width="444px" height="103px" viewBox="0 0 444 103" version="1.1" xmlns="http://www.w3.org/2000/svg" xmlns:xlink="http://www.w3.org/1999/xlink">
    <!-- Generator: Sketch 53.2 (72643) - https://sketchapp.com -->
    <title>logo - HH 03 - BIG</title>
    <desc>Created with Sketch.</desc>
    <g id="Page-1" stroke="none" stroke-width="1" fill="none" fill-rule="evenodd">
        <g id="happy-hour_home_04a" transform="translate(-499.000000, -1119.000000)" fill="#FFFFFF">
            <g id="logo-hero" transform="translate(499.000000, 1119.000000)">
                <g id="logo-/-HH-03">
                    <g id="hour" transform="translate(264.796786, 0.000000)">
                        <path d="M35.3648675,20.7146667 L24.9870361,20.7146667 L24.9870361,20.7413333 L14.1438072,20.7413333 L14.1438072,-1.0658141e-14 L-2.13162821e-14,-1.0658141e-14 L-2.13162821e-14,84.8613333 L14.1438072,84.8613333 L14.1438072,24.2613333 L23.1789398,24.2613333 C24.1766024,24.2613333 24.9870361,25.0693333 24.9870361,26.064 L24.9870361,84.848 L39.1361928,84.848 L39.1361928,24.4746667 C39.1361928,22.3973333 37.4457831,20.7146667 35.3648675,20.7146667" id="h2"></path>
                        <path d="M74.8220241,26.0714667 L74.8220241,79.5408 C74.8220241,80.5354667 74.0115904,81.3434667 73.011253,81.3434667 L65.7895663,81.3434667 C64.7892289,81.3434667 63.9787952,80.5354667 63.9787952,79.5408 L63.9787952,26.0714667 C63.9787952,25.0741333 64.7892289,24.2688 65.7895663,24.2688 L73.011253,24.2688 C74.0115904,24.2688 74.8220241,25.0741333 74.8220241,26.0714667 M85.1891566,20.7141333 L53.6143373,20.7381333 C51.5280723,20.7381333 49.834988,22.4261333 49.834988,24.5061333 L49.834988,81.0928 C49.834988,83.1754667 51.5280723,84.8608 53.6143373,84.8608 L85.1891566,84.8608 C87.2754217,84.8608 88.9658313,83.1754667 88.9658313,81.0928 L88.9658313,24.4794667 C88.9658313,22.3994667 87.2754217,20.7141333 85.1891566,20.7141333" id="o"></path>
                        <path d="M138.787446,20.7136 L124.640964,20.7136 L124.640964,81.3562667 L115.61653,81.3562667 C114.618867,81.3562667 113.808434,80.5482667 113.808434,79.5509333 L113.808434,20.7429333 L99.6592771,20.7429333 L99.6592771,81.0896 C99.6592771,83.1642667 101.347012,84.8496 103.430602,84.8496 L103.962867,84.8496 L103.962867,84.8762667 L136.008434,84.8762667 L136.008434,84.8629333 L138.787446,84.8629333 L138.787446,20.7136 Z" id="u"></path>
                        <path d="M179.084458,24.2357333 L179.084458,20.7157333 L153.792506,20.7157333 L153.792506,20.7424 L153.260241,20.7424 C151.173976,20.7424 149.488916,22.4250667 149.488916,24.5024 L149.488916,84.8490667 L163.638072,84.8490667 L163.638072,26.0384 C163.638072,25.0437333 164.445831,24.2357333 165.443494,24.2357333 L179.084458,24.2357333 Z" id="r"></path>
                    </g>
                    <g id="happy" transform="translate(0.000000, 0.000000)">
                        <path d="M35.3648675,20.7146667 L24.9870361,20.7146667 L24.9870361,20.7413333 L14.1464819,20.7413333 L14.1464819,-1.0658141e-14 L2.66453526e-15,-1.0658141e-14 L2.66453526e-15,84.8613333 L14.1464819,84.8613333 L14.1464819,24.2613333 L23.1762651,24.2613333 C24.1766024,24.2613333 24.9870361,25.0693333 24.9870361,26.064 L24.9870361,84.848 L39.1361928,84.848 L39.1361928,24.4746667 C39.1361928,22.3973333 37.4457831,20.7146667 35.3648675,20.7146667" id="h2"></path>
                        <path d="M224.307463,20.7394667 L224.307463,81.3288 L215.264306,81.3288 C214.263969,81.3288 213.453535,80.5208 213.453535,79.5234667 L213.453535,20.7421333 L199.331125,20.7421333 L199.331125,81.1154667 C199.331125,83.1901333 201.021535,84.8754667 203.102451,84.8754667 L213.453535,84.8754667 L213.453535,84.8488 L224.307463,84.8488 L224.307463,102.931467 L238.453945,102.931467 L238.453945,20.7394667 L224.307463,20.7394667 Z" id="y"></path>
                        <path d="M124.653802,79.552 C124.653802,80.5493333 123.843369,81.3546667 122.845706,81.3546667 L113.813248,81.3546667 L113.813248,24.2613333 L122.845706,24.2613333 C123.843369,24.2613333 124.653802,25.0693333 124.653802,26.064 L124.653802,79.552 Z M135.034308,20.7146667 L124.653802,20.7146667 L124.653802,20.7413333 L113.813248,20.7413333 L113.813248,20.736 L99.6667663,20.736 L99.6667663,102.930667 L113.813248,102.930667 L113.813248,84.8746667 L127.571899,84.8746667 L127.571899,84.848 L135.034308,84.848 C137.115224,84.848 138.805634,83.1653333 138.805634,81.088 L138.805634,24.4746667 C138.805634,22.3973333 137.115224,20.7146667 135.034308,20.7146667 L135.034308,20.7146667 Z" id="p1"></path>
                        <path d="M174.483173,79.552 C174.483173,80.5493333 173.67274,81.3546667 172.675077,81.3546667 L163.647969,81.3546667 L163.647969,24.2613333 L172.675077,24.2613333 C173.67274,24.2613333 174.483173,25.0693333 174.483173,26.064 L174.483173,79.552 Z M184.861005,20.7146667 L174.483173,20.7146667 L174.483173,20.7413333 L163.647969,20.7413333 L163.647969,20.736 L149.504161,20.736 L149.504161,102.930667 L163.647969,102.930667 L163.647969,84.8746667 L180.848957,84.8746667 L180.848957,84.848 L184.861005,84.848 C186.944595,84.848 188.63233,83.1653333 188.63233,81.088 L188.63233,24.4746667 C188.63233,22.3973333 186.944595,20.7146667 184.861005,20.7146667 L184.861005,20.7146667 Z" id="p2"></path>
                        <path d="M74.8193494,81.3554667 L65.7949157,81.3554667 C64.797253,81.3554667 63.9868193,80.5474667 63.9868193,79.5528 L63.9868193,40.3928 C63.9868193,39.3954667 64.797253,38.5874667 65.7949157,38.5874667 L74.8193494,38.5874667 L74.8193494,81.3554667 Z M85.1971807,20.7154667 L72.922988,20.7208 L72.922988,20.7154667 L50.5304096,20.7154667 L50.5304096,24.2674667 L69.3816867,24.2674667 L72.922988,24.2674667 L73.011253,24.2674667 C74.0089157,24.2674667 74.8193494,25.0754667 74.8193494,26.0728 L74.8193494,35.0674667 L53.608988,35.0674667 C51.5280723,35.0674667 49.8376627,36.7501333 49.8376627,38.8274667 L49.8376627,81.0888 C49.8376627,83.1661333 51.5280723,84.8488 53.608988,84.8488 L88.968506,84.8488 L88.968506,24.4728 C88.968506,22.3981333 87.2807711,20.7128 85.1971807,20.7154667 L85.1971807,20.7154667 Z" id="a"></path>
                    </g>
                </g>
            </g>
        </g>
    </g>
</svg>